<?xml version="1.0" standalone="no"?>
<!DOCTYPE svg PUBLIC "-//W3C//DTD SVG 1.1//EN" "http://www.w3.org/Graphics/SVG/1.1/DTD/svg11.dtd" >
<svg xmlns="http://www.w3.org/2000/svg">
  <metadata>Created by iconfont</metadata>
  <defs>
  <font id="iconfont" horiz-adv-x="1024">
    <font-face
      font-family="iconfont"
      font-weight="400"
      font-stretch="normal"
      units-per-em="1024"
      ascent="896"
      descent="-128"
    />
      <missing-glyph />
      
      <glyph glyph-name="xiaoshouqushi" unicode="&#58981;" d="M147.2 256 51.2 256C19.2 256 0 230.4 0 204.8l0-211.2C0-38.4 19.2-64 51.2-64l96 0C172.8-64 192-38.4 192-12.8l0 217.6C192 230.4 172.8 256 147.2 256zM128 19.2C128 6.4 115.2 0 96 0S64 6.4 64 19.2l0 153.6C64 185.6 76.8 192 96 192S128 185.6 128 172.8L128 19.2zM403.2 448 307.2 448C275.2 448 256 422.4 256 396.8l0-403.2C256-38.4 275.2-64 307.2-64l96 0c25.6 0 51.2 25.6 51.2 51.2L454.4 396.8C448 422.4 428.8 448 403.2 448zM384 19.2C384 6.4 371.2 0 352 0S320 6.4 320 19.2L320 364.8C320 377.6 332.8 384 352 384S384 377.6 384 364.8L384 19.2zM908.8 512l-96 0c-32 0-51.2-25.6-51.2-51.2l0-467.2c0-32 19.2-57.6 51.2-57.6l96 0c25.6 0 51.2 25.6 51.2 51.2L960 460.8C953.6 486.4 934.4 512 908.8 512zM889.6 19.2c0-12.8-12.8-19.2-32-19.2-19.2 0-32 6.4-32 19.2L825.6 428.8c0 12.8 12.8 19.2 32 19.2 19.2 0 32-6.4 32-19.2L889.6 19.2zM659.2 320 563.2 320C531.2 320 512 294.4 512 268.8l0-275.2C512-38.4 531.2-64 563.2-64l96 0c25.6 0 44.8 25.6 44.8 51.2L704 268.8C704 294.4 684.8 320 659.2 320zM640 19.2c0-12.8-12.8-19.2-32-19.2S576 6.4 576 19.2l0 217.6C576 249.6 588.8 256 608 256s32-6.4 32-19.2L640 19.2zM64 307.2l288 249.6 204.8-140.8c19.2-25.6 44.8-6.4 44.8 0L896 729.6l0-57.6C896 652.8 908.8 640 928 640S960 652.8 960 672l0 128C960 819.2 947.2 832 928 832l-128 0C780.8 832 768 819.2 768 800S780.8 768 800 768l44.8 0L576 486.4 371.2 627.2c0 0 0 0 0 0C358.4 640 339.2 640 326.4 627.2L19.2 358.4C6.4 345.6 6.4 320 19.2 307.2 32 300.8 51.2 300.8 64 307.2z"  horiz-adv-x="1024" />
      
      <glyph glyph-name="guanfangwangzhan" unicode="&#58938;" d="M456.906218 601.035058c-42.228777-10.670014-79.681784-33.305547-108.548228-64.070224 26.117844-8.246825 53.705156-14.551414 82.46313-18.790972C437.532985 547.484422 446.249507 575.308117 456.906218 601.035058zM424.566672 486.637612c-34.660404 4.920056-67.606771 12.549827-98.240465 22.73684-21.435195-31.585369-34.989909-68.920696-37.855166-109.256356l128.071887 0C417.34213 429.864584 419.84002 458.910107 424.566672 486.637612zM416.542928 368.123404 288.471041 368.123404c2.864234-40.33566 16.419971-77.670987 37.855166-109.257379 30.633694 10.187013 63.580061 17.819854 98.240465 22.73991C419.84002 309.33344 417.34213 338.378963 416.542928 368.123404zM560.185442 513.933281c-8.17417 33.479509-19.188015 65.027016-32.810267 93.384877-5.15337 0.354064-10.288321 0.783853-15.532765 0.783853-5.242398 0-10.377348-0.429789-15.530718-0.783853-13.622252-28.358885-24.636097-59.906391-32.810267-93.384877 15.910365-1.384533 32.027437-2.218528 48.342008-2.218528C528.156982 511.714753 544.275077 512.549771 560.185442 513.933281zM566.856375 482.619088c-17.998933-1.577938-36.323277-2.505054-55.013965-2.505054-18.690688 0-37.014009 0.926092-55.012941 2.505054-4.824889-26.615171-7.380084-54.332443-8.233522-82.500992l126.494972 0C574.23646 428.286646 571.681264 456.003917 566.856375 482.619088zM675.326832 536.964834c-28.866445 30.764678-66.320475 53.400211-108.549252 64.070224 10.657734-25.725918 19.373233-53.549613 26.085098-82.861196C621.621677 522.412396 649.207965 528.716986 675.326832 536.964834zM456.828446 285.624459c17.998933 1.577938 36.323277 2.506077 55.012941 2.506077 18.690688 0 37.015032-0.928139 55.014988-2.506077 4.824889 26.615171 7.379061 54.331419 8.233522 82.497922L448.595948 368.122381C449.449385 339.955878 452.003558 312.23963 456.828446 285.624459zM607.14087 400.118096l128.072911 0c-2.864234 40.33566-16.418948 77.673034-37.855166 109.258403-30.633694-10.188037-63.580061-17.817808-98.241488-22.737864C603.844801 458.910107 606.341668 429.863561 607.14087 400.118096zM511.706311 895.939625c-282.59624 0-511.684822-229.089605-511.684822-511.684822s229.089605-511.684822 511.684822-511.684822 511.684822 229.089605 511.684822 511.684822S794.301528 895.939625 511.706311 895.939625zM511.842411 128.143775c-141.371798 0-255.977999 114.606201-255.977999 255.976976 0 141.374868 114.606201 255.976976 255.977999 255.976976 141.372821 0 255.977999-114.602108 255.977999-255.976976C767.82041 242.749976 653.215232 128.143775 511.842411 128.143775zM599.117127 281.605935c34.661428-4.920056 67.607794-12.551874 98.241488-22.73991 21.435195 31.585369 34.990932 68.920696 37.855166 109.257379L607.14087 368.123404C606.341668 338.378963 603.844801 309.33344 599.117127 281.605935zM566.777581 167.207465c42.228777 10.66899 79.682807 33.3035 108.549252 64.070224-26.117844 8.246825-53.706179 14.551414-82.464153 18.789948C586.150814 220.758102 577.434292 192.93236 566.777581 167.207465zM348.357989 231.27769c28.866445-30.765701 66.320475-53.401234 108.548228-64.070224-10.656711 25.724895-19.373233 53.549613-26.085098 82.860173C402.063145 245.830127 374.476857 239.525538 348.357989 231.27769zM463.500403 254.307196c8.17417-33.479509 19.188015-65.027016 32.810267-93.383854 5.15337-0.355087 10.288321-0.785899 15.530718-0.785899 5.244444 0 10.379395 0.429789 15.532765 0.785899 13.622252 28.356838 24.636097 59.905368 32.810267 93.383854-15.910365 1.384533-32.027437 2.219551-48.343031 2.219551C495.526817 256.52777 479.409744 255.691729 463.500403 254.307196z"  horiz-adv-x="1024" />
      
      <glyph glyph-name="zixunguanlizixunfuwuguanli" unicode="&#59031;" d="M362.666667 279.722667c-4.949333 23.381333-4.096 41.130667-21.333333 49.834667-36.352-26.282667-73.728-14.677333-81.578667-11.776-5.12-9.557333-5.802667-22.528-9.045333-38.058667-15.189333-2.56-24.064-20.992 0.512-37.888 5.973333-31.573333 26.794667-60.416 55.296-61.098667 28.501333 0.682667 49.322667 29.525333 55.296 61.098667C386.730667 258.730667 377.856 277.162667 362.666667 279.722667zM248.490667 280.917333c3.413333 16.213333 4.266667 29.696 9.557333 39.594667 8.021333-2.901333 46.08-15.018667 84.138667 12.458667 17.749333-9.045333 19.626667-27.477333 23.210667-52.053333 2.56-0.512 4.778667-1.365333 6.826667-2.56 1.536 13.482667 6.826667 73.728-23.210667 74.410667-6.485333 8.533333-23.04 14.506667-41.984 14.506667-76.8 0-67.925333-74.069333-65.365333-88.917333C243.541333 279.552 245.930667 280.405333 248.490667 280.917333zM229.717333 125.44l22.698667 16.725333-18.773333 7.68 13.824 23.893333c-20.992-9.728-49.493333-23.722667-55.466667-31.573333-9.728-12.8-25.088-88.576-25.088-88.576L300.373333 53.589333 229.717333 125.44zM239.445333 151.893333l21.162667-8.704-24.576-18.090667 70.144-71.509333-35.328 130.56c0 0-7.168-3.072-17.066667-7.509333L239.445333 151.893333zM378.88 149.845333l-18.773333-7.68 22.528-16.725333-70.826667-71.850667 133.632 0c0 0-15.36 75.776-25.088 88.576-5.973333 7.850667-34.304 22.016-55.466667 31.573333L378.88 149.845333zM351.744 143.189333l21.162667 8.704-14.336 24.746667c-9.898667 4.437333-17.066667 7.509333-17.066667 7.509333l-35.157333-130.56 70.144 71.509333L351.744 143.189333zM292.352 120.32 306.176 69.290667 320 120.32 315.392 151.552 320.341333 156.842667 313.173333 170.325333 299.178667 170.325333 292.010667 156.842667 296.96 151.552ZM774.314667 279.722667c-4.778667 23.381333-4.096 41.130667-21.333333 49.834667-36.352-26.282667-73.728-14.677333-81.578667-11.776-5.12-9.557333-5.802667-22.528-9.045333-38.058667-15.189333-2.56-24.064-20.992 0.512-37.888 5.973333-31.573333 26.794667-60.416 55.296-61.098667 28.501333 0.682667 49.322667 29.525333 55.296 61.098667C798.378667 258.730667 789.504 277.162667 774.314667 279.722667zM660.138667 280.917333c3.413333 16.213333 4.096 29.696 9.386667 39.594667 8.021333-2.901333 46.08-15.018667 84.138667 12.458667 17.749333-9.045333 19.626667-27.477333 23.210667-52.053333 2.56-0.512 4.778667-1.365333 6.826667-2.56 1.536 13.482667 6.826667 73.728-23.210667 74.410667-6.485333 8.533333-23.04 14.506667-41.984 14.506667-76.8 0-67.925333-74.069333-65.365333-88.917333C655.189333 279.552 657.578667 280.405333 660.138667 280.917333zM641.365333 125.44l22.528 16.725333-18.773333 7.68 13.824 23.893333c-20.992-9.728-49.493333-23.722667-55.466667-31.573333-9.728-12.8-25.088-88.576-25.088-88.576l133.632 0L641.365333 125.44zM651.093333 151.893333l21.162667-8.704-24.576-18.090667 70.144-71.509333L682.666667 184.149333c0 0-7.168-3.072-17.066667-7.509333L651.093333 151.893333zM790.528 149.845333l-18.773333-7.68 22.698667-16.725333L723.626667 53.589333l133.632 0c0 0-15.36 75.776-25.088 88.576-5.973333 7.850667-34.304 22.016-55.466667 31.573333L790.528 149.845333zM763.392 143.189333l21.162667 8.704-14.336 24.746667c-9.898667 4.437333-17.066667 7.509333-17.066667 7.509333l-35.157333-130.56 70.144 71.509333L763.392 143.189333zM704 120.32 717.824 69.290667 731.648 120.32 727.04 151.552 731.989333 156.842667 724.821333 170.325333 710.826667 170.325333 703.658667 156.842667 708.608 151.552ZM568.490667 626.858667c-4.949333 23.381333-4.266667 41.130667-21.333333 49.834667-36.352-26.282667-73.728-14.677333-81.578667-11.946667-5.12-9.557333-5.802667-22.528-9.045333-38.058667-15.189333-2.56-24.064-20.992 0.512-37.888 5.973333-31.573333 26.794667-60.416 55.296-61.098667 28.501333 0.682667 49.322667 29.696 55.296 61.098667C592.554667 605.866667 583.68 624.298667 568.490667 626.858667zM454.314667 628.053333c3.413333 16.213333 4.266667 29.696 9.557333 39.594667 8.021333-2.901333 46.08-15.018667 84.138667 12.458667 17.749333-9.045333 19.626667-27.477333 23.210667-52.053333 2.56-0.341333 4.778667-1.365333 6.826667-2.56 1.536 13.482667 6.826667 73.728-23.210667 74.410667-6.485333 8.533333-23.04 14.506667-41.984 14.506667-76.8 0-67.925333-74.069333-65.365333-88.917333C449.365333 626.688 451.754667 627.541333 454.314667 628.053333zM435.541333 472.576l22.528 16.725333-18.773333 7.68 13.824 23.893333c-20.992-9.728-49.493333-23.722667-55.466667-31.573333-9.728-12.8-25.088-88.576-25.088-88.576l133.632 0L435.541333 472.576zM445.269333 499.029333l21.162667-8.704-24.576-18.090667 70.144-71.509333-35.157333 130.730667c0 0-7.168-3.072-17.066667-7.509333L445.269333 499.029333zM584.704 496.981333l-18.773333-7.68 22.528-16.725333-70.826667-71.850667 133.632 0c0 0-15.36 75.776-25.088 88.576-5.973333 7.850667-34.474667 22.016-55.466667 31.573333L584.704 496.981333zM557.568 490.325333l21.162667 8.704-14.336 24.746667c-9.898667 4.437333-17.066667 7.509333-17.066667 7.509333L512 400.725333l70.144 71.509333L557.568 490.325333zM498.176 467.456 512 416.426667 525.824 467.456 521.216 498.688 526.165333 503.978667 518.997333 517.461333 505.002667 517.461333 497.834667 503.978667 502.784 498.688ZM519.509333 261.12 519.509333 373.930667 504.490667 373.930667 504.490667 261.12 406.869333 204.629333 414.208 191.829333 512 248.149333 609.792 191.829333 617.130667 204.629333Z"  horiz-adv-x="1024" />
      
      <glyph glyph-name="xiaoshoudingdan" unicode="&#58985;" d="M768 704 256 704C217.6 704 192 678.4 192 640l0-576c0-38.4 25.6-64 64-64l512 0c38.4 0 64 25.6 64 64L832 640C832 678.4 806.4 704 768 704zM800 76.8c0-25.6-19.2-51.2-51.2-51.2L268.8 25.6c-25.6 0-51.2 19.2-51.2 51.2L217.6 627.2c0 25.6 19.2 51.2 51.2 51.2l480 0c25.6 0 51.2-19.2 51.2-51.2L800 76.8zM704 704 320 704l0 0c0 38.4 25.6 64 64 64l256 0C678.4 768 704 742.4 704 704L704 704zM320 582.4m-12.8 0a0.2 0.2 0 1 0 25.6 0 0.2 0.2 0 1 0-25.6 0ZM723.2 563.2 428.8 563.2c-6.4 0-12.8 6.4-12.8 12.8l0 0c0 6.4 6.4 12.8 12.8 12.8l288 0c6.4 0 12.8-6.4 12.8-12.8l0 0C736 569.6 729.6 563.2 723.2 563.2zM320 486.4m-12.8 0a0.2 0.2 0 1 0 25.6 0 0.2 0.2 0 1 0-25.6 0ZM723.2 467.2 428.8 467.2c-6.4 0-12.8 6.4-12.8 12.8l0 0c0 6.4 6.4 12.8 12.8 12.8l288 0c6.4 0 12.8-6.4 12.8-12.8l0 0C736 473.6 729.6 467.2 723.2 467.2zM640 313.6C633.6 320 627.2 320 620.8 313.6L512 211.2l-38.4 38.4c0 0 0 0 0 0-6.4 6.4-6.4 6.4-12.8 6.4-6.4 0-6.4 0-12.8-6.4 0 0 0 0 0 0l-44.8-44.8c-6.4-6.4-6.4-19.2 0-25.6 6.4-6.4 19.2-6.4 25.6 0l38.4 38.4 38.4-38.4c0 0 0 0 0 0 6.4-6.4 6.4-6.4 12.8-6.4 6.4 0 6.4 0 12.8 6.4 0 0 0 0 0 0L640 294.4C646.4 300.8 646.4 307.2 640 313.6zM723.2 115.2l-384 0L339.2 384c0 6.4-6.4 12.8-12.8 12.8S307.2 390.4 307.2 384l0-281.6c0-6.4 6.4-12.8 12.8-12.8l403.2 0c6.4 0 12.8 6.4 12.8 12.8S729.6 115.2 723.2 115.2z"  horiz-adv-x="1024" />
      
      <glyph glyph-name="caiwuguanli" unicode="&#58941;" d="M933.214321 0.490419 94.301759 0.490419c-14.481829 0-26.216081 11.742439-26.216081 26.216081 0 14.473643 11.734252 26.216081 26.216081 26.216081l838.912561 0c14.481829 0 26.216081-11.742439 26.216081-26.216081C959.430402 12.233881 947.69615 0.490419 933.214321 0.490419zM92.287893 393.730619c-8.039093 0-15.984043 3.686972-21.12104 10.666944-8.593725 11.657504-6.101975 28.059056 5.555529 36.660968l332.060815 244.682745c8.516977 6.247284 19.978007 6.827499 29.040407 1.36509l159.78824-95.869465 318.0231 234.322793c11.640108 8.568143 28.059056 6.092765 36.652781-5.563716 8.593725-11.657504 6.101975-28.059056-5.555529-36.660968l-332.078211-244.682745c-8.499581-6.263657-19.952424-6.843872-29.040407-1.36509l-159.78824 95.869465L107.819634 398.833847C103.143125 395.386328 97.689926 393.730619 92.287893 393.730619zM164.211992 140.309862c-19.303648 0-34.955116 15.651468-34.955116 34.955116L129.256876 297.605328c0 19.303648 15.651468 34.955116 34.955116 34.955116s34.955116-15.651468 34.955116-34.955116l0-122.341373C199.166085 155.960307 183.514617 140.309862 164.211992 140.309862zM338.984505 140.309862c-19.303648 0-34.955116 15.651468-34.955116 34.955116L304.029388 367.514537c0 19.303648 15.651468 34.955116 34.955116 34.955116 19.303648 0 34.955116-15.651468 34.955116-34.955116l0-192.250582C373.939621 155.960307 358.288153 140.309862 338.984505 140.309862zM513.75804 140.309862c-19.303648 0-34.955116 15.651468-34.955116 34.955116l0 244.682745c0 19.303648 15.651468 34.955116 34.955116 34.955116s34.955116-15.651468 34.955116-34.955116l0-244.682745C548.713156 155.960307 533.061688 140.309862 513.75804 140.309862zM688.531576 140.309862c-19.303648 0-34.955116 15.651468-34.955116 34.955116L653.576459 402.469654c0 19.303648 15.651468 34.955116 34.955116 34.955116s34.955116-15.651468 34.955116-34.955116l0-227.205699C723.486692 155.960307 707.835224 140.309862 688.531576 140.309862zM863.305111 140.309862c-19.303648 0-34.955116 15.651468-34.955116 34.955116L828.349995 542.288073c0 19.303648 15.651468 34.955116 34.955116 34.955116s34.955116-15.651468 34.955116-34.955116l0-367.024118C898.260228 155.960307 882.608759 140.309862 863.305111 140.309862z"  horiz-adv-x="1024" />
      
      <glyph glyph-name="houtai9" unicode="&#58922;" d="M692.314944-127.925046c-5.352983 0.768281-10.712212 1.561547-16.065195 2.304843-24.260193 3.385434-45.778309 12.973332-65.029059 28.089106-22.698646 17.820373-38.170453 40.475296-47.108747 67.839844-4.484763 13.72912-6.65219 27.833012-6.677175 42.130536-0.162401 106.228913-0.087447 212.457826-0.087447 318.686739 0 2.292351 0 4.578456 0 7.532902 2.698353 0 4.959473 0 7.214347 0 107.777968 0 215.562181 0.337294 323.340149-0.218617 29.37582-0.149909 56.165719-10.04387 79.894986-27.90172 17.751665-13.354349 31.480786-29.981701 41.331024-49.67593 7.945151-15.896548 13.12324-32.748762 13.685397-50.750274 0.031231-0.986898 0.724558-1.955057 1.111821-2.935708 0-67.483811 0-134.973868 0-202.45768-0.387264-1.174283-0.91819-2.317336-1.143052-3.516604-1.886349-10.231255-2.829523-20.737343-5.740246-30.662535-8.207491-27.957936-24.753642-50.469196-47.502257-68.458216-18.994657-15.022081-40.500281-24.341393-64.535611-27.701842-5.352983-0.749543-10.699719-1.536562-16.052702-2.304843C823.40993-127.925046 757.862437-127.925046 692.314944-127.925046L692.314944-127.925046zM1023.931292 562.060071c-0.774527-4.772087-1.586532-9.544175-2.317336-14.322508-3.697743-24.191485-13.348103-45.709601-28.538831-64.879151-12.192558-15.390606-27.008515-27.714335-44.254239-36.771307-14.291277-7.501671-29.569452-13.035794-45.853263-14.235062-13.25441-0.974405-26.583775-1.218007-39.881908-1.230499-99.451799-0.093693-198.903599-0.04997-298.361645-0.04997-2.273612 0-4.547225 0-7.376748 0 0 2.635891 0 4.715872 0 6.789606 0 107.209564-0.324802 214.419129 0.199878 321.622447 0.156155 31.674417 10.930828 60.238234 31.043553 85.154276 22.436306 27.795535 51.693449 43.654605 86.266097 50.606612 2.323582 0.468464 4.665902 0.836989 6.99573 1.249238 72.524485 0 145.055215 0 217.585946 0 0.780773-0.387264 1.52407-0.905697 2.348567-1.136806 12.548591-3.435403 25.534415-5.746493 37.577065-10.474857 23.648066-9.288081 42.605246-25.147151 57.521142-45.72834 13.010809-17.951543 21.536855-37.795681 24.741149-59.825985 0.699573-4.78458 1.536562-9.544175 2.311089-14.316262C1023.931292 697.033939 1023.931292 629.550128 1023.931292 562.060071L1023.931292 562.060071zM0 212.991875c1.536562 7.120654 2.873246 14.291277 4.659656 21.343223 4.91575 19.43189 13.872783 36.802538 26.533805 52.405514 17.583018 21.668025 39.632061 36.621398 66.084665 45.20366 13.685397 4.441039 27.758058 6.683421 42.143028 6.689667 105.841649 0.031231 211.683299 0.018739 317.524948 0.018739 2.517214 0 5.028181 0 8.488569 0 0-2.21115 0-4.234915 0-6.264926 0-110.301427 0.243601-220.602855-0.218617-330.898036-0.0812-19.925339-6.852068-38.588947-16.521166-56.228181-7.757765-14.147615-17.526802-26.546297-29.419544-37.171063-18.463731-16.489935-39.819446-27.758058-64.279517-32.442699-7.276809-1.3929-14.77848-1.624009-22.16772-2.467244-0.818251-0.093693-1.574039-0.730804-2.361059-1.111821-65.160229 0-130.320459 0-195.474442 0-1.174283 0.387264-2.336074 1.099329-3.516604 1.111821-19.182042 0.281078-37.183555 5.446676-54.110723 14.016445-17.133293 8.675955-32.217836 20.069001-44.579041 35.122313-13.116994 15.965256-22.761108 33.579505-28.039136 53.504843-2.005026 7.576626-3.173063 15.378114-4.722118 23.073417C0 70.266488 0 141.629181 0 212.991875M139.589801 290.900573 139.589801 290.900573zM340.923167 896.006246c7.314286-1.549055 14.709772-2.779553 21.924119-4.709625 19.925339-5.334244 37.564572-14.940881 53.523582-28.101598 16.90843-13.941491 29.076003-31.237184 37.889374-50.968891 6.702159-15.009589 11.105722-30.799951 11.118214-47.389826 0.087447-108.952251 0.043723-217.910748 0.043723-326.862999 0-2.273612 0-4.547225 0-7.395486-2.429767 0-4.309869 0-6.196218 0-109.926656 0-219.847066-0.243601-329.773722 0.21237-21.3807 0.087447-41.593363 7.1269-59.838477 18.307576C59.613615 455.231524 49.719654 462.1523 41.474686 470.416006c-14.035184 14.060168-25.309552 30.318995-32.242821 49.301159-4.197438 11.480493-7.582872 23.060925-8.207491 35.334683-0.018739 0.412248-0.662096 0.799512-1.018129 1.193022 0 71.36894 0 142.731634 0 214.094327 0.387264 0.780773 0.949421 1.52407 1.124314 2.348567 2.123704 9.981408 3.17931 20.325095 6.458558 29.906746 8.932048 26.090326 24.922289 47.452287 46.652775 64.385702 13.86029 10.799658 29.038526 19.219519 46.296743 23.385726 7.976382 1.923826 15.977748 3.760205 23.966622 5.640307C196.642479 896.006246 268.7797 896.006246 340.923167 896.006246M327.89362 849.19107 327.89362 849.19107zM417.551397 771.451019 417.551397 771.451019z"  horiz-adv-x="1024" />
      
      <glyph glyph-name="yingxiaogongzuoliu" unicode="&#58883;" d="M886.660679 436.046287 839.994328 436.046287C814.211168 436.046287 793.327975 456.629214 793.327975 482.041657 793.327975 507.4541 814.211168 528.037029 839.994328 528.037029L886.660679 528.037029C938.203667 528.037029 979.993386 569.225883 979.993386 620.027772 979.993386 670.829659 938.203667 712.018515 886.660679 712.018515L839.994328 712.018515C814.211168 712.018515 793.327975 732.62444 793.327975 758.013885 793.327975 783.426328 814.211168 804.009257 839.994328 804.009257L886.660679 804.009257C989.746651 804.009257 1073.326089 721.631548 1073.326089 620.027772 1073.326089 518.423996 989.746651 436.046287 886.660679 436.046287L886.660679 436.046287ZM723.328448-115.898173 349.997636-115.898173C324.214477-115.898173 303.331285-95.292248 303.331285-69.902801L303.331285 114.078686C303.331285 139.491128 324.214477 160.074057 349.997636 160.074057L723.328448 160.074057C749.111608 160.074057 769.9948 139.491128 769.9948 114.078686L769.9948-69.902801C769.9948-95.292248 749.111608-115.898173 723.328448-115.898173L723.328448-115.898173ZM629.995745 68.083315 443.330339 68.083315C417.547181 68.083315 396.663989 47.500386 396.663989 22.087943 396.663989-3.3245 417.547181-23.907429 443.330339-23.907429L629.995745-23.907429C655.778904-23.907429 676.662097-3.3245 676.662097 22.087943 676.662097 47.500386 655.778904 68.083315 629.995745 68.083315L629.995745 68.083315ZM723.328448 252.0648 349.997636 252.0648C324.214477 252.0648 303.331285 272.670727 303.331285 298.060172L303.331285 482.041657C303.331285 507.4541 324.214477 528.037029 349.997636 528.037029L723.328448 528.037029C749.111608 528.037029 769.9948 507.4541 769.9948 482.041657L769.9948 298.060172C769.9948 272.670727 749.111608 252.0648 723.328448 252.0648L723.328448 252.0648ZM629.995745 436.046287 443.330339 436.046287C417.547181 436.046287 396.663989 415.463358 396.663989 390.050915 396.663989 364.638471 417.547181 344.055543 443.330339 344.055543L629.995745 344.055543C655.778904 344.055543 676.662097 364.638471 676.662097 390.050915 676.662097 415.463358 655.778904 436.046287 629.995745 436.046287L629.995745 436.046287ZM723.328448 620.027772 349.997636 620.027772C324.214477 620.027772 303.331285 640.633698 303.331285 666.023143L303.331285 850.004628C303.331285 875.417071 324.214477 896 349.997636 896L723.328448 896C749.111608 896 769.9948 875.417071 769.9948 850.004628L769.9948 666.023143C769.9948 640.633698 749.111608 620.027772 723.328448 620.027772L723.328448 620.027772ZM629.995745 804.009257 443.330339 804.009257C417.547181 804.009257 396.663989 783.426328 396.663989 758.013885 396.663989 732.62444 417.547181 712.018515 443.330339 712.018515L629.995745 712.018515C655.778904 712.018515 676.662097 732.62444 676.662097 758.013885 676.662097 783.426328 655.778904 804.009257 629.995745 804.009257L629.995745 804.009257ZM186.665406 114.078686 233.331758 114.078686C259.114917 114.078686 279.998109 93.495758 279.998109 68.083315 279.998109 42.693869 259.114917 22.087943 233.331758 22.087943L186.665406 22.087943C83.579435 22.087943 0 104.465654 0 206.069429 0 307.673204 83.579435 390.050915 186.665406 390.050915L233.331758 390.050915C259.114917 390.050915 279.998109 369.467986 279.998109 344.055543 279.998109 318.6431 259.114917 298.060172 233.331758 298.060172L186.665406 298.060172C135.122421 298.060172 93.332703 256.871316 93.332703 206.069429 93.332703 155.267541 135.122421 114.078686 186.665406 114.078686L186.665406 114.078686Z"  horiz-adv-x="1118" />
      
      <glyph glyph-name="kehuguanli" unicode="&#58986;" d="M394.783236 790.068966C280.082314 790.068966 187.552032 694.612074 187.552032 577.400126 187.552032 460.188178 280.082314 364.731268 394.783236 364.731268 509.484159 364.731268 602.014439 460.188178 602.014439 577.400126 602.014439 694.612074 509.484159 790.068966 394.783236 790.068966ZM394.783236 435.351958C319.585621 435.351958 258.172721 498.707279 258.172721 577.400126 258.172721 656.092954 319.585621 719.448276 394.783236 719.448276 469.98085 719.448276 531.39375 656.092954 531.39375 577.400126 531.39375 498.707279 469.98085 435.351958 394.783236 435.351958ZM0.101278 19.470495C-1.438149-1.015596 14.768493-18.485778 35.312349-18.485778L754.254124-18.485778C774.798703-18.485778 791.005599-1.014413 789.465056 19.472331 776.020697 198.260807 655.670194 338.610953 506.940889 338.610953L282.626382 338.610953C133.82161 338.610953 13.538423 198.286777 0.101278 19.470495ZM506.940889 267.990263C614.775001 267.990263 708.145092 159.104088 719.04319 14.176803L754.254124 52.134912 35.312349 52.134912 70.523419 14.178639C81.416207 159.135603 174.724337 267.990263 282.626382 267.990263L506.940889 267.990263ZM988.691659 630.652698C1008.193024 630.652698 1024.002004 646.46167 1024.002004 665.963043 1024.002004 685.464399 1008.193024 701.273388 988.691659 701.273388L730.81037 701.273388C711.309005 701.273388 695.500025 685.464399 695.500025 665.963043 695.500025 646.46167 711.309005 630.652698 730.81037 630.652698L988.691659 630.652698ZM988.691659 436.445802C1008.193024 436.445802 1024.002004 452.254773 1024.002004 471.756147 1024.002004 491.257503 1008.193024 507.066492 988.691659 507.066492L715.181201 507.066492C695.679836 507.066492 679.870856 491.257503 679.870856 471.756147 679.870856 452.254773 695.679836 436.445802 715.181201 436.445802L988.691659 436.445802ZM988.691659 242.238905C1008.193024 242.238905 1024.002004 258.047876 1024.002004 277.54925 1024.002004 297.050606 1008.193024 312.859595 988.691659 312.859595L777.697877 312.859595C758.196512 312.859595 742.387532 297.050606 742.387532 277.54925 742.387532 258.047876 758.196512 242.238905 777.697877 242.238905L988.691659 242.238905Z"  horiz-adv-x="1024" />
      
      <glyph glyph-name="yunyingguanli" unicode="&#58904;" d="M736.232934 777.807798h-448.922521L62.848129 389.029325 287.309389 0.250852h448.922521l224.46126 388.778473L736.232934 777.807798zM714.634073 37.66055H308.90825l-202.862399 351.368775L308.909274 740.397076h405.725823l202.862399-351.368775L714.634073 37.66055zM586.137489 506.649175h35.451005v-37.60014h-35.451005zM586.137489 432.523973h35.451005v-36.526085h-35.451005zM454.000992 596.889308v-336.251107h-110.651287v61.96042c17.313901 7.12829 29.507351 24.158574 29.507351 44.043451 0 26.299518-21.31934 47.618859-47.618859 47.618859s-47.618859-21.31934-47.618858-47.618859c0-19.352457 11.551474-35.996736 28.130225-43.445502v-99.084455h148.251428v-37.60014h224.525765V596.889308H454.000992z m187.99968-372.777193H492.675188V559.289168h149.325484v-335.177053z"  horiz-adv-x="1024" />
      
      <glyph glyph-name="wangzhandaohang" unicode="&#58886;" d="M333.824 746.496h-208.896c-20.48 0-36.864-16.384-36.864-36.864v-208.896c0-20.48 16.384-36.864 36.864-36.864h208.896c20.48 0 36.864 16.384 36.864 36.864v208.896c0 20.48-16.384 36.864-36.864 36.864zM323.584 510.976h-188.416v188.416h188.416v-188.416zM485.376 699.392h428.032c12.288 0 22.528 10.24 22.528 22.528 0 12.288-10.24 24.576-22.528 24.576h-428.032c-12.288 0-22.528-10.24-22.528-24.576-2.048-12.288 8.192-22.528 22.528-22.528zM913.408 510.976h-428.032c-12.288 0-22.528-10.24-22.528-24.576s10.24-24.576 22.528-24.576h428.032c12.288 0 22.528 10.24 22.528 24.576s-10.24 24.576-22.528 24.576zM333.824 304.128h-208.896c-20.48 0-36.864-16.384-36.864-36.864v-208.896c0-20.48 16.384-36.864 36.864-36.864h208.896c20.48 0 36.864 16.384 36.864 36.864v208.896c0 20.48-16.384 36.864-36.864 36.864zM323.584 68.608h-188.416v188.416h188.416v-188.416zM913.408 304.128h-428.032c-12.288 0-22.528-10.24-22.528-22.528s10.24-24.576 22.528-24.576h428.032c12.288 0 22.528 10.24 22.528 24.576s-10.24 22.528-22.528 22.528zM913.408 68.608h-428.032c-12.288 0-22.528-10.24-22.528-24.576 0-12.288 10.24-22.528 22.528-22.528h428.032c12.288 0 22.528 10.24 22.528 22.528 0 14.336-10.24 24.576-22.528 24.576z"  horiz-adv-x="1024" />
      
      <glyph glyph-name="peizhiguanli" unicode="&#58943;" d="M544.033302 379.999224V799.999436c0 17.672051-14.478655 31.998984-32.150706 31.998984s-32.150706-14.326933-32.150707-31.998984v-420.061624c-54.909072-14.251072-95.809105-64.333925-95.809105-123.935554 0-59.691941 40.82056-109.836206 96.090876-124.000579a32.298816 32.298816 0 0 1-0.281771-4.006195v-159.99492c0-17.672051 14.478655-31.998984 32.150707-31.998984s32.150706 14.326933 32.150706 31.998984V127.995484a32.280754 32.280754 0 0 1-0.317894 3.941171c55.389526 14.088512 96.397933 64.301413 96.397932 124.058378 0.010837 59.691941-40.809723 109.832593-96.080038 124.004191z m13.221527-169.249989a64.00158 64.00158 0 1 0 18.744945 45.256635 63.578925 63.578925 0 0 0-18.744945-45.260247zM223.678606 699.996289a32.287979 32.287979 0 0 1 0.292607 4.002582V799.999436a31.970084 31.970084 0 1 1-63.940169 0V703.998871a32.371065 32.371065 0 0 1 0.180622-4.060381c-55.270316-14.160761-96.173962-64.301413-96.173961-124.000579s40.910871-109.818143 96.181186-123.996966a32.360228 32.360228 0 0 1-0.184234-3.937558V-31.999436a31.970084 31.970084 0 1 1 63.940169 0V447.999774a32.287979 32.287979 0 0 1-0.278158 3.883372c55.385914 14.088512 96.350971 64.301413 96.350971 124.054765S279.071744 685.915002 223.678606 699.996289z m13.575545-169.315013A64.00158 64.00158 0 1 0 255.999097 575.937911a63.578925 63.578925 0 0 0-18.744946-45.256635zM959.99842 575.937911c0 59.775027-41.048144 109.977091-96.45212 124.058378a32.360228 32.360228 0 0 1 0.173397 4.002582V799.999436a31.970084 31.970084 0 1 1-63.940169 0V703.998871a32.291592 32.291592 0 0 1 0.299833-4.060381c-55.270316-14.160761-96.116162-64.301413-96.116163-124.000579s40.82056-109.836206 96.090876-124.000578a32.298816 32.298816 0 0 1-0.281771-3.99897V-31.999436a31.970084 31.970084 0 1 1 63.940169 0V447.938363a32.381903 32.381903 0 0 1-0.166172 3.941171c55.407588 14.084899 96.452119 64.286963 96.45212 124.058377z m-82.746526-45.253022a63.997968 63.997968 0 1 0 18.748558 45.253022 63.578925 63.578925 0 0 0-18.748558-45.253022z"  horiz-adv-x="1024" />
      
      <glyph glyph-name="xingxiaoxiaoguo" unicode="&#58911;" d="M162.5 536.6c-22.1 0-40-13.1-40-29.2v-421.8c0-16.1 17.9-29.2 40-29.2s40 13.1 40 29.2v421.8c0 16.1-17.9 29.2-40 29.2zM397.4 643.2c-22.1 0-40-13.1-40-29.2v-528.4c0-16.1 17.9-29.2 40-29.2s40 13.1 40 29.2v528.4c0 16.1-17.9 29.2-40 29.2zM632.3 482.9c-22.1 0-40-13.1-40-29.2v-368c0-16.1 17.9-29.2 40-29.2s40 13.1 40 29.2v368c0 16.1-17.9 29.2-40 29.2zM867.2 760c-22.1 0-40-13.1-40-29.2v-645.2c0-16.1 17.9-29.2 40-29.2s40 13.1 40 29.2v645.3c0 16.1-17.9 29.1-40 29.1z"  horiz-adv-x="1024" />
      
      <glyph glyph-name="mobanguanli" unicode="&#58895;" d="M917.157111-15.728984L539.691177-15.728984l0 465.389426 377.464911 0L917.156088-15.728984zM591.663876 36.797323l273.519514 0 0 360.336812-273.519514 0L591.663876 36.797323zM484.299613-15.728984l-377.456724 0 0 193.578834 377.456724 0L484.299613-15.728984zM158.805354 36.797323l273.529747 0 0 88.515986-273.529747 0L158.805354 36.797323zM917.157111 478.220918L106.842889 478.220918 106.842889 783.728984l810.314223 0L917.157111 478.220918zM158.805354 531.320277l706.378036 0 0 199.872167-706.378036 0L158.805354 531.320277zM484.299613 220.102163l-377.456724 0 0 229.558279 377.456724 0L484.299613 220.102163zM158.805354 272.075885l273.529747 0 0 125.058251-273.529747 0L158.805354 272.075885z"  horiz-adv-x="1024" />
      
      <glyph glyph-name="kehuguanli1" unicode="&#58970;" d="M384 221.090909h-186.181818c-18.618182 0-34.909091-16.290909-34.909091-34.909091S179.2 151.272727 197.818182 151.272727h186.181818c18.618182 0 34.909091 16.290909 34.909091 34.909091s-16.290909 34.909091-34.909091 34.909091zM465.454545 849.454545H116.363636C76.8 849.454545 46.545455 819.2 46.545455 779.636364v-791.272728c0-39.563636 30.254545-69.818182 69.818181-69.818181h418.909091V488.727273c0 18.618182-16.290909 34.909091-34.909091 34.909091s-34.909091-16.290909-34.909091-34.909091V-11.636364H116.363636V779.636364h349.090909v-81.454546c0-18.618182 16.290909-34.909091 34.909091-34.909091S535.272727 679.563636 535.272727 698.181818V779.636364c0 39.563636-30.254545 69.818182-69.818182 69.818181z m-81.454545-418.90909h-186.181818c-18.618182 0-34.909091-16.290909-34.909091-34.909091S179.2 360.727273 197.818182 360.727273h186.181818c18.618182 0 34.909091 16.290909 34.909091 34.909091s-16.290909 34.909091-34.909091 34.909091zM907.636364 430.545455H581.818182v-512h325.818182c39.563636 0 69.818182 30.254545 69.818181 69.818181V360.727273c0 39.563636-30.254545 69.818182-69.818181 69.818182z m0-442.181819H651.636364V360.727273h256v-372.363637z m-174.545455 139.636364h93.090909c18.618182 0 34.909091 16.290909 34.909091 34.909091s-16.290909 34.909091-34.909091 34.909091h-93.090909c-18.618182 0-34.909091-16.290909-34.909091-34.909091s16.290909-34.909091 34.909091-34.909091z m-349.090909 512h-186.181818c-18.618182 0-34.909091-16.290909-34.909091-34.909091S179.2 570.181818 197.818182 570.181818h186.181818c18.618182 0 34.909091 16.290909 34.909091 34.909091s-16.290909 34.909091-34.909091 34.909091z"  horiz-adv-x="1024" />
      
      <glyph glyph-name="yingxiao" unicode="&#59317;" d="M101.344 45.328h237.328V426.672L273.728 472 101.344 325.328zM394.672 45.328H632v379.12L517.344 328l-122.672 66.672zM688 469.328v-424h237.328V466.672L824.016 600zM140.544 431.456l129.072 107.968 246.576-150.112 292.416 275.392c1.056 0.992 1.92 2.144 2.816 3.248l49.248-49.808 79.312 223.2-227.52-73.296 54.448-55.072c-0.72-0.56-1.488-1.024-2.176-1.664L507.824 469.344 263.744 617.92 99.488 480.544c-13.568-11.344-15.36-31.52-4.016-45.072s31.536-15.376 45.072-4.016zM920 1.344H100c-17.664 0-32-14.336-32-32s14.336-32 32-32h820c17.664 0 32 14.336 32 32s-14.336 32-32 32z"  horiz-adv-x="1024" />
      
      <glyph glyph-name="yingxiao1" unicode="&#59328;" d="M101.344 45.328h237.328V426.672L273.728 472 101.344 325.328zM394.672 45.328H632v379.12L517.344 328l-122.672 66.672zM688 469.328v-424h237.328V466.672L824.016 600zM140.544 431.456l129.072 107.968 246.576-150.112 292.416 275.392c1.056 0.992 1.92 2.144 2.816 3.248l49.248-49.808 79.312 223.2-227.52-73.296 54.448-55.072c-0.72-0.56-1.488-1.024-2.176-1.664L507.824 469.344 263.744 617.92 99.488 480.544c-13.568-11.344-15.36-31.52-4.016-45.072s31.536-15.376 45.072-4.016zM920 1.344H100c-17.664 0-32-14.336-32-32s14.336-32 32-32h820c17.664 0 32 14.336 32 32s-14.336 32-32 32z"  horiz-adv-x="1024" />
      
      <glyph glyph-name="dingdanwuliaocaigouruku" unicode="&#58940;" d="M916.224 4.352v-77.952a54.208 54.208 0 0 0-54.336-54.272H162.112a54.272 54.272 0 0 0-54.336 54.272V498.688l-25.984-18.24a52.096 52.096 0 0 0-72.32 12.48A51.84 51.84 0 0 0 22.4 565.12L481.344 886.4A52.096 52.096 0 0 0 512 895.808 52.096 52.096 0 0 0 542.72 886.4l458.816-321.28a51.84 51.84 0 0 0 13.056-72.192 52.096 52.096 0 0 0-72.32-12.48l-26.048 18.24v-357.12h-187.008v71.104c0 6.976-4.608 9.408-10.368 5.44l-202.56-138.048c-5.76-3.968-5.76-10.24 0-14.208l202.56-138.112c5.76-3.84 10.368-1.472 10.368 5.504v71.04h187.008zM254.72 464.768c-6.784-1.088-12.288-6.528-12.16-12.16v-49.152c0-6.4 7.232-12.096 14.976-12.16h118.016c7.68 0.128 14.912 5.76 14.976 12.224v49.088c0 6.4-7.232 12.16-14.912 12.16H257.536a9.344 9.344 0 0 1-2.816 0z m0-121.28c-6.784-1.088-12.288-6.464-12.16-12.16v-49.088c0-6.464 7.232-12.16 14.976-12.16h118.016c7.68 0.128 14.912 5.76 14.976 12.16v49.088c0 6.4-7.232 12.16-14.912 12.16H257.536a9.344 9.344 0 0 1-2.816 0z m188.672 0c-6.784-1.088-12.288-6.464-12.224-12.16v-49.088c0-6.464 7.232-12.16 14.976-12.16h118.016c7.68 0.128 14.912 5.76 15.04 12.16v49.088c0 6.4-7.296 12.16-14.976 12.16H446.144a9.344 9.344 0 0 1-2.752 0zM254.72 222.208c-6.784-1.088-12.288-6.464-12.16-12.16v-49.088c0-6.4 7.232-12.16 14.976-12.16h118.016c7.68 0.128 14.912 5.76 14.976 12.224v49.088c0 6.4-7.232 12.096-14.912 12.096H257.536a9.344 9.344 0 0 1-2.816 0z m188.672 0c-6.784-1.088-12.288-6.464-12.224-12.16v-49.088c0-6.4 7.232-12.16 14.976-12.16h118.016c7.68 0.128 14.912 5.76 15.04 12.224v49.088c0 6.4-7.296 12.096-14.976 12.096H446.144a9.344 9.344 0 0 1-2.752 0z"  horiz-adv-x="1024" />
      
      <glyph glyph-name="caijiguanli" unicode="&#58905;" d="M872.96 683.52l30.72 30.72c-17.92 23.04-38.4 40.96-61.44 61.44L814.08 742.4c20.48-17.92 40.96-38.4 58.88-58.88zM811.52 384h84.48v-43.52h-84.48zM755.2 655.36l-197.12-197.12c-12.8 7.68-28.16 12.8-43.52 12.8-46.08 0-84.48-38.4-84.48-84.48s38.4-84.48 84.48-84.48 84.48 38.4 84.48 84.48c0 15.36-5.12 30.72-12.8 43.52l197.12 197.12-28.16 28.16z m-240.64-314.88c-23.04 0-43.52 17.92-43.52 43.52 0 23.04 17.92 43.52 43.52 43.52 23.04 0 43.52-17.92 43.52-43.52-2.56-23.04-20.48-43.52-43.52-43.52zM952.32 642.56L921.6 611.84c38.4-66.56 58.88-145.92 58.88-227.84 0-258.56-209.92-468.48-468.48-468.48S43.52 125.44 43.52 384 253.44 852.48 512 852.48c84.48 0 161.28-23.04 230.4-61.44l30.72 30.72C696.32 870.4 606.72 896 512 896c-281.6 0-512-230.4-512-512s230.4-512 512-512 512 230.4 512 512c0 94.72-25.6 181.76-71.68 258.56zM386.56 212.48c-46.08 0-84.48-38.4-84.48-84.48s38.4-84.48 84.48-84.48h256c46.08 0 84.48 38.4 84.48 84.48s-38.4 84.48-84.48 84.48h-256z m296.96-84.48c0-23.04-17.92-43.52-43.52-43.52h-256c-23.04 0-43.52 17.92-43.52 43.52 0 23.04 17.92 43.52 43.52 43.52h256c25.6 0 43.52-20.48 43.52-43.52zM130.56 384h84.48v-43.52h-84.48zM471.04 768h43.52v-84.48h-43.52z"  horiz-adv-x="1024" />
      
      <glyph glyph-name="shujuguanli" unicode="&#58923;" d="M1177.6 844.8c0 28.16-23.04 51.2-51.2 51.2h-102.4c-28.16 0-51.2-23.04-51.2-51.2v-819.2h204.8V844.8z m-51.2-768h-102.4V844.8h102.4v-768zM204.8-76.8h1024v-51.2h-1024zM256 332.8c0 28.16-23.04 51.2-51.2 51.2h-102.4c-28.16 0-51.2-23.04-51.2-51.2v-307.2h204.8V332.8z m-51.2-256h-102.4V332.8h102.4v-256zM563.2 640c0 28.16-23.04 51.2-51.2 51.2h-102.4c-28.16 0-51.2-23.04-51.2-51.2v-614.4h204.8V640z m-51.2-563.2h-102.4V640h102.4v-563.2zM0-76.8h102.4v-51.2h-102.4zM870.4 537.6c0 28.16-23.04 51.2-51.2 51.2h-102.4c-28.16 0-51.2-23.04-51.2-51.2v-512h204.8V537.6z m-51.2-460.8h-102.4V537.6h102.4v-460.8z"  horiz-adv-x="1228" />
      
      <glyph glyph-name="guanliyuan_guanliyuanrizhi" unicode="&#58894;" d="M109.696 271.68a32 32 0 0 0-32 32V445.696a32 32 0 0 0 64 0v-142.016a32 32 0 0 0-32-32zM787.008-60.032H237.696a160.192 160.192 0 0 0-160 160v20.672a32 32 0 0 0 64 0v-20.672c0-52.928 43.072-96 96-96h549.312c52.928 0 96 43.072 96 96V291.712a32 32 0 0 0 64 0v-191.68a160.192 160.192 0 0 0-160-160.064zM915.008 452.672a32 32 0 0 0-32 32V667.968c0 52.928-43.072 96-96 96H237.696c-52.928 0-96-43.072-96-96v-15.232a32 32 0 0 0-64 0v15.232c0 88.192 71.808 160 160 160h549.312c88.256 0 160-71.808 160-160v-183.296a32 32 0 0 0-32-32zM913.472 276.992c-60.544 0-109.824 49.344-109.824 109.888s49.28 109.824 109.824 109.824 109.888-49.28 109.888-109.824-49.28-109.888-109.888-109.888z m0 168.512a58.624 58.624 0 1 1 0.192-117.312 58.624 58.624 0 0 1-0.192 117.312zM185.856 516.672H34.816a32 32 0 0 0 0 64h150.976a32 32 0 0 0 0.064-64zM711.36 516.672H353.344a32 32 0 0 0 0 64h358.016a32 32 0 0 0 0-64zM711.36 342.656H353.344a32 32 0 0 0 0 64h358.016a32 32 0 0 0 0-64zM711.36 180.672H353.344a32 32 0 0 0 0 64h358.016a32 32 0 0 0 0-64zM185.856 185.664H34.816a32 32 0 0 0 0 64h150.976a32 32 0 0 0 0.064-64z"  horiz-adv-x="1024" />
      
      <glyph glyph-name="guanliyuan_jiaoseguanli" unicode="&#58898;" d="M537.216-107.776h-427.52c-27.072 0-52.8 11.456-70.592 31.296a76.352 76.352 0 0 0-19.904 58.88l-0.192 60.16a32 32 0 0 0 64 0v-63.872c-0.384-5.44 0.576-8.832 3.968-12.608a30.656 30.656 0 0 1 22.72-9.856h427.52a32 32 0 0 0 0-64zM50.752-38.144a32 32 0 0 0-32 32v60.032a457.536 457.536 0 0 0 277.952 421.12 32.192 32.192 0 0 0 42.048-16.832 32.128 32.128 0 0 0-16.896-42.112 393.408 393.408 0 0 1-239.104-362.24v-60.032a32 32 0 0 0-32-31.936zM460.736 381.504a247.36 247.36 0 0 0-247.104 247.104A247.424 247.424 0 0 0 460.736 875.776a247.424 247.424 0 0 0 247.168-247.168 247.36 247.36 0 0 0-247.168-247.104z m0 430.272a183.36 183.36 0 0 1-183.104-183.168 183.296 183.296 0 0 1 183.104-183.104 183.36 183.36 0 0 1 183.168 183.104 183.36 183.36 0 0 1-183.168 183.168zM778.56 66.624c-42.944 0-77.888 34.944-77.888 77.888s34.944 77.888 77.888 77.888 77.888-34.944 77.888-77.888-34.944-77.888-77.888-77.888z m0 110.976a33.216 33.216 0 1 1 0.064-66.368 33.216 33.216 0 0 1-0.064 66.368zM834.56-64.384a22.4 22.4 0 0 0-22.144 19.2 35.2 35.2 0 0 1-34.56 30.208c-17.152 0-32-12.864-34.624-30.016a22.272 22.272 0 0 0-28.736-17.984 217.536 217.536 0 0 0-84.352 49.344 22.4 22.4 0 0 0 1.28 33.728 35.136 35.136 0 0 1 8.32 44.864 35.84 35.84 0 0 1-42.88 15.04 22.4 22.4 0 0 0-29.76 15.936c-3.712 16.448-5.632 32.768-5.632 48.64s1.92 32.192 5.632 48.64a22.144 22.144 0 0 0 11.2 14.72 22.528 22.528 0 0 0 18.496 1.216 34.944 34.944 0 1 1 34.56 59.968 22.336 22.336 0 0 0-8.192 16.64 21.248 21.248 0 0 0 6.976 16.96 217.472 217.472 0 0 0 84.352 49.28 22.4 22.4 0 0 0 28.672-18.048 35.328 35.328 0 0 1 34.624-29.952 35.2 35.2 0 0 1 34.56 30.208 22.4 22.4 0 0 0 28.608 18.304 217.6 217.6 0 0 0 85.248-49.088 22.336 22.336 0 0 0-1.472-34.048 34.88 34.88 0 0 1-8.896-45.056 35.84 35.84 0 0 1 43.776-14.784 22.592 22.592 0 0 0 30.208-15.552 214.336 214.336 0 0 0 0-98.816 22.592 22.592 0 0 0-30.336-15.552 35.456 35.456 0 0 1-43.648-14.72 35.008 35.008 0 0 1 8.96-45.184 22.4 22.4 0 0 0 1.408-34.048 218.368 218.368 0 0 0-85.312-49.024 19.584 19.584 0 0 0-6.336-1.024z m-56.768 94.144c30.144 0 57.024-17.216 70.592-42.752 10.624 4.736 20.864 10.624 30.528 17.536a79.232 79.232 0 0 0-1.728 82.56 81.024 81.024 0 0 0 72.832 39.744 164.16 164.16 0 0 1 0 35.264 81.28 81.28 0 0 0-72.768 39.68 80.128 80.128 0 0 0 1.792 82.496 166.336 166.336 0 0 1-30.656 17.664c-13.504-25.6-40.448-42.816-70.592-42.816-29.824 0-56.64 17.024-70.336 42.304a179.072 179.072 0 0 1-30.336-17.792c15.104-24.384 16.256-55.68 1.28-81.792-14.528-25.216-43.008-42.432-71.296-39.872a147.776 147.776 0 0 1 0-35.008 83.84 83.84 0 0 0 71.296-39.744c15.04-26.24 13.888-57.536-1.216-81.92 9.472-6.976 19.648-12.928 30.336-17.792 13.696 25.216 40.512 42.24 70.272 42.24z"  horiz-adv-x="1024" />
      
      <glyph glyph-name="wuliaocaigou" unicode="&#58902;" d="M893.60616817 450.35628457L813.23772031 530.34563643a50.04073213 50.04073213 0 0 1-37.90964531 15.16385829 49.66163526 49.66163526 0 0 1-37.90964531-15.16385829l-307.44722373-309.72180235-147.08942315 147.4685209a57.24356484 57.24356484 0 0 1-37.90964531 15.16385742 57.62266084 57.62266084 0 0 1-37.90964531-15.16385742L129.72681494 288.10300313000005a51.17802099 51.17802099 0 0 1 0-73.16561514l263.47203545-265.36751719a50.04073213 50.04073213 0 0 1 37.90964531-15.54295518 51.55711787 51.55711787 0 0 1 37.90964532 15.54295518l424.58802714 426.48350977a49.66163526 49.66163526 0 0 1 14.78476143 37.90964531 51.17802099 51.17802099 0 0 1-14.78476143 36.39325869zM429.97120596-12.899580760000049l-265.36751719 265.36751719 80.36844873 79.23115898 183.48268271-183.48268359L776.84446075 492.43599112l78.8520621-80.36844786zM243.07665488 780.54929531h272.9494459a25.3994625 25.3994625 0 0 1 25.77855938 25.77855938 25.3994625 25.3994625 0 0 1-25.77855938 27.29494424H243.07665488a25.3994625 25.3994625 0 0 1-25.7785585-25.7785585 25.3994625 25.3994625 0 0 1 25.7785585-27.29494512z m0-147.46852002h490.17171358a25.77855849 25.77855849 0 1 1 0 51.55711787H243.07665488a25.77855849 25.77855849 0 1 1 0-51.55711787z m0-147.46852002h272.9494459a25.3994625 25.3994625 0 0 1 25.77855938 25.7785585 25.77855849 25.77855849 0 0 1-25.77855938 26.15765537H243.07665488a25.77855849 25.77855849 0 0 1-25.7785585-26.15765537 25.3994625 25.3994625 0 0 1 25.7785585-25.7785585zM155.12627744 779.41200644A27.29494424 27.29494424 0 1 1 128.2104292 806.32785469a27.29494424 27.29494424 0 0 1 26.91584824-26.91584825z m0-147.46852089a27.29494424 27.29494424 0 1 1-26.91584824 27.29494511 27.29494424 27.29494424 0 0 1 26.91584824-27.29494511z m0-147.46852003a27.29494424 27.29494424 0 1 1-27.29494424 27.29494513 27.29494424 27.29494424 0 0 1 27.29494424-27.29494512z"  horiz-adv-x="1024" />
      
      <glyph glyph-name="wuliaokucunguankong" unicode="&#58903;" d="M1036.59716784 626.15698249h-113.06762691v-112.60986307h113.06762691z m0-185.85205096h-113.06762691v-112.60986307h113.06762691z m0-185.85205095h-113.06762691v-113.06762691h113.06762691z m-216.52221677 371.70410189h-113.0676269v-112.60986305h113.0676269z m0-185.85205094h-113.0676269v-112.60986307h113.0676269z m0-185.85205095h-113.0676269v-113.06762691h113.0676269zM603.55273433 440.76269537H490.4851074v-113.06762691h113.06762691z m0 185.85205096H490.4851074v-113.06762691h113.06762691z m0-371.70410191H490.4851074v-113.06762689h113.06762691zM347.2050778 754.78857422v-741.57714844h832.67211963V754.78857422z m782.775879-691.68090851h-732.42187451v640.8691409h732.42187451zM274.87841833 704.89233429a24.71923805 24.71923805 0 1 1-2e-8 49.89623993H165.93066383A24.71923805 24.71923805 0 0 1 141.21142578 730.06933617v-691.68090851a24.71923805 24.71923805 0 0 1 24.71923805-24.71923804h108.9477545a24.71923805 24.71923805 0 1 1 0 49.89623993H191.10766571v183.10546862h83.77075262a24.71923805 24.71923805 0 1 1 0 49.89624064H191.10766571V474.63720736h83.77075262a24.71923805 24.71923805 0 1 1 0 51.26953071H191.10766571V709.0122067z"  horiz-adv-x="1434" />
      
      <glyph glyph-name="gongchangchejianguanli" unicode="&#58909;" d="M389.71948203 614.66515987h308.52081386a27.36878203 27.36878203 0 0 1 28.079659 27.7242205 28.07965898 28.07965898 0 0 1-28.07965899 28.43509834H389.71948203a28.07965898 28.07965898 0 0 1-27.72422138-28.43509834 27.36878203 27.36878203 0 0 1 27.72422138-27.7242205zM204.18046631 648.43183886a99.87828222 99.87828222 0 0 1 28.43509833 14.57298809v-90.99231416a4.97614219 4.97614219 0 0 1 7.10877481-4.97614219h27.01334268a4.97614219 4.97614219 0 0 1 4.97614219 4.97614219v142.17549083a4.97614219 4.97614219 0 0 1-4.97614219 4.97614218h-21.32632354a4.97614219 4.97614219 0 0 1-5.68701914-4.26526523 45.14071817 45.14071817 0 0 0-15.28386504-20.26000723 73.57581651 73.57581651 0 0 0-21.32632353-12.44035547 4.97614219 4.97614219 0 0 1-3.55438741-4.62070284v-24.52527245A4.97614219 4.97614219 0 0 1 204.18046631 649.1427166999999zM639.94834443 454.71773378H397.53913378a28.07965898 28.07965898 0 0 1-28.43509833-27.7242205 28.43509834 28.43509834 0 0 1 28.43509833-28.43509834h242.40921065a28.07965898 28.07965898 0 0 1 28.07965987 28.43509834 27.36878203 27.36878203 0 0 1-28.07965987 27.72422051zM271.35838583 400.3356082a174.87585351 174.87585351 0 0 1 18.1273755 18.48281397 78.90739717 78.90739717 0 0 1 11.37403916 19.19369091 53.67124775 53.67124775 0 0 1 3.90982588 19.90456875 41.58633076 41.58633076 0 0 1-13.50667178 31.6340464 50.82773818 50.82773818 0 0 1-35.54387226 12.44035546 55.44844102 55.44844102 0 0 1-35.54387315-10.66316132 48.69510557 48.69510557 0 0 1-17.0610583-35.54387315 4.97614219 4.97614219 0 0 1 4.26526435-5.33158067l27.01334356-2.84350957a4.97614219 4.97614219 0 0 1 5.33158066 4.97614219 22.03720137 22.03720137 0 0 0 4.26526436 13.86211026 13.15123242 13.15123242 0 0 0 9.95228437 3.5543874 13.15123242 13.15123242 0 0 0 9.95228437-3.5543874 13.86211026 13.86211026 0 0 0 3.55438742-10.30772286 24.88071094 24.88071094 0 0 0-4.62070372-13.86211026 177.71936309 177.71936309 0 0 0-21.68176201-22.03720136 181.62918896 181.62918896 0 0 1-31.27860791-35.54387226 71.08774541 71.08774541 0 0 1-9.95228438-28.79053682 4.97614219 4.97614219 0 0 1 4.97614219-5.33158066h94.90214004a4.97614219 4.97614219 0 0 1 4.97614219 4.97614131v24.88071093a4.97614219 4.97614219 0 0 1-4.97614219 4.97614219H256.0745208zM283.08786347 217.99554229a35.54387227 35.54387227 0 0 1 14.21754961 28.07965898 38.03194336 38.03194336 0 0 1-11.37403915 26.6579042 46.56247295 46.56247295 0 0 1-35.54387315 14.21754961 54.02668623 54.02668623 0 0 1-23.1035168-4.97614219 40.16457598 40.16457598 0 0 1-16.70561982-13.50667177 60.4245832 60.4245832 0 0 1-8.53052959-22.03720138 4.97614219 4.97614219 0 0 1 3.90982588-5.68701914l24.88071093-4.26526523a4.97614219 4.97614219 0 0 1 4.97614219 4.26526523 17.77193614 17.77193614 0 0 0 4.62070284 11.01860068 11.37403916 11.37403916 0 0 0 8.53052958 3.55438653 10.30772285 10.30772285 0 0 0 7.81965177-2.84350957 10.66316221 10.66316221 0 0 0 2.84351044-7.81965177 12.08491699 12.08491699 0 0 0-3.90982589-9.59684589 18.48281396 18.48281396 0 0 0-12.44035546-3.5543874 4.97614219 4.97614219 0 0 1-4.97614218-4.26526435l-2.84351045-22.03720137a4.97614219 4.97614219 0 0 1 4.97614219-5.68701914H239.72433945a42.29720859 42.29720859 0 0 0 11.01860068 1.77719326 12.44035547 12.44035547 0 0 0 9.59684503-4.26526436 18.12737461 18.12737461 0 0 0 4.26526523-12.79579395 19.54913027 19.54913027 0 0 0-4.26526523-13.86211025 14.21754873 14.21754873 0 0 0-20.26000724 0 20.26000723 20.26000723 0 0 0-5.33158065 12.44035547 4.97614219 4.97614219 0 0 1-4.97614219 4.26526436l-25.59158877-3.90982588a4.97614219 4.97614219 0 0 1-4.26526436-5.33158066 47.98422773 47.98422773 0 0 1 16.35018135-31.98948574 51.18317666 51.18317666 0 0 1 35.54387227-12.084917 51.53861513 51.53861513 0 0 1 35.54387314 14.57298809 47.27335078 47.27335078 0 0 1 14.92842656 35.54387227 38.74282119 38.74282119 0 0 1-8.17509111 24.88071094 35.54387227 35.54387227 0 0 1-11.01860068 9.24140742zM896.57510469 336.3566376V772.4799542A60.06914473 60.06914473 0 0 1 879.5140455 815.8434791 59.00282842 59.00282842 0 0 1 835.08420518 833.97085371h-710.87745146A59.00282842 59.00282842 0 0 1 79.7769125 815.8434791 60.06914473 60.06914473 0 0 1 62.00497636 772.4799542v-693.10551534a60.78002256 60.78002256 0 0 1 17.77193614-43.71896337 59.00282842 59.00282842 0 0 1 43.71896338-17.77193614h519.65141749A209.70884795 209.70884795 0 1 1 896.57510469 336.3566376z m-272.62150313-96.6793333H395.40650117a27.36878203 27.36878203 0 0 1-27.7242205-27.72422052 28.07965898 28.07965898 0 0 1 27.7242205-28.43509833h209.35340948a205.08814512 205.08814512 0 0 1 8.53052958-106.63161768H123.49587588c-3.5543874 0-4.97614219 2.13263261-4.97614219 5.68702002V772.4799542c0 3.5543874 0 4.97614219 4.97614219 4.97614218h710.87745146c3.5543874 0 4.97614219 0 4.97614219-4.97614218v-421.19489004a207.22077685 207.22077685 0 0 1-216.10674492-112.67407617z m171.32146612-226.0590293a27.01334355 27.01334355 0 0 0-38.38738185 0l-99.52284374 98.81196503a27.01334355 27.01334355 0 1 0 38.38738272 38.38738273l80.68459042-80.68459044 148.92882628 148.92882627a27.01334355 27.01334355 0 1 0 38.38738271-38.38738271z"  horiz-adv-x="1090" />
      
      <glyph glyph-name="houtaicaidan" unicode="&#58942;" d="M873.0501875 401.325h-254.88749971a88.94999971 88.94999971 0 0 0-88.875 88.875V745.08749971c0 23.66250029 9.26250029 45.97499971 26.1 62.81250029A88.2 88.2 0 0 0 618.16268779 834h254.88749971a89.02500029 89.02500029 0 0 0 88.91250029-88.91250029v-254.88749971a88.9875 88.9875 0 0 0-88.91250029-88.875z m38.54999971 343.76249971c0 21.2625-17.28749971 38.54999971-38.54999971 38.55000058h-254.88749971c-21.22499971 0-38.51250029-17.28749971-38.51250029-38.55000058v-254.88749971a38.62500029 38.62500029 0 0 1 38.51250029-38.54999971h254.88749971c21.2625 0 38.54999971 17.28749971 38.54999971 38.54999971V745.08749971zM405.76268779-65.96249970999997H150.87518721A88.94999971 88.94999971 0 0 0 62.00018721 22.912500290000025v254.88749971a88.9875 88.9875 0 0 0 88.875 88.91250029h254.88750058a89.02500029 89.02500029 0 0 0 88.91249942-88.91250029v-254.88749971a88.9875 88.9875 0 0 0-88.91249942-88.875z m38.54999971 343.76249971c0 21.2625-17.28749971 38.54999971-38.54999971 38.54999971H150.87518721c-21.2625 0-38.54999971-17.28749971-38.54999971-38.54999971v-254.88749971a38.62500029 38.62500029 0 0 1 38.54999971-38.55000058h254.88750058a38.62500029 38.62500029 0 0 1 38.54999971 38.55000058v254.88749971z m-38.54999971 123.525H150.87518721A88.94999971 88.94999971 0 0 0 62.00018721 490.2V745.08749971A88.9875 88.9875 0 0 0 150.87518721 834h254.88750058c23.66250029 0 45.93750029-9.29999971 62.775-26.13750029a88.12500029 88.12500029 0 0 0 26.13749942-62.775v-254.88749971a88.9875 88.9875 0 0 0-88.91249942-88.875z m38.54999971 343.76249971c0 21.2625-17.28749971 38.54999971-38.54999971 38.55000058H150.87518721c-21.2625 0-38.54999971-17.28749971-38.54999971-38.55000058v-254.88749971a38.62500029 38.62500029 0 0 1 38.54999971-38.54999971h254.88750058a38.62500029 38.62500029 0 0 1 38.54999971 38.54999971V745.08749971z m173.85000029-378.37499942h254.88749971a89.02500029 89.02500029 0 0 0 88.91250029-88.91250029v-254.88749971a88.9875 88.9875 0 0 0-88.91250029-88.875h-254.88749971a88.94999971 88.94999971 0 0 0-88.875 88.875v254.88749971a88.9875 88.9875 0 0 0 88.875 88.91250029z m-38.51250029-343.8a38.62500029 38.62500029 0 0 1 38.51250029-38.55000058h254.88749971a38.62500029 38.62500029 0 0 1 38.54999971 38.55000058v254.88749971c0 21.2625-17.28749971 38.54999971-38.51249942 38.54999971h-254.925c-21.22499971 0-38.51250029-17.28749971-38.51250029-38.54999971v-254.88749971z"  horiz-adv-x="1024" />
      
      <glyph glyph-name="pingtaiguanlizhujiguanli" unicode="&#58958;" d="M880.201143 859.282286a89.234286 89.234286 0 0 0 88.941714-88.868572v-81.846857a89.234286 89.234286 0 0 0-88.941714-88.941714H143.798857A89.234286 89.234286 0 0 0 54.857143 688.566857V770.413714A89.234286 89.234286 0 0 0 143.798857 859.282286h736.402286z m28.891428-88.868572c0 7.826286-5.339429 14.848-14.701714 20.918857-6.144 3.876571-12.361143 6.509714-14.189714 7.314286H143.798857a28.233143 28.233143 0 0 1-28.745143-28.233143v-84.114285c0-16.676571 9.654857-26.624 28.745143-26.624h736.402286c20.626286 0 28.891429 8.338286 28.891428 28.891428V770.413714z m-28.891428-565.467428a89.234286 89.234286 0 0 0 88.941714-88.941715v-81.846857a89.234286 89.234286 0 0 0-88.941714-88.868571H143.798857A89.234286 89.234286 0 0 0 54.857143 34.157714v81.846857a89.234286 89.234286 0 0 0 88.941714 88.941715h736.402286z m29.696-88.941715c0 22.820571-5.12 27.794286-29.696 27.794286H146.066286c-22.162286 0-32.402286-8.557714-32.402286-27.794286v-81.846857c0-20.48 7.533714-28.013714 28.233143-28.013714h738.304c21.211429 0 29.696 7.972571 29.696 28.013714v81.846857z m0 327.168c0 18.870857-9.069714 26.331429-29.696 26.331429H143.798857c-18.285714 0-28.818286-11.995429-28.818286-29.403429v-80.018285c0-14.774857 10.898286-26.697143 28.818286-26.697143h736.402286c22.893714 0 29.622857 5.12 29.622857 23.698286V443.245714z m-29.696 88.941715a89.234286 89.234286 0 0 0 88.941714-88.941715v-81.773714a89.234286 89.234286 0 0 0-88.941714-88.941714H143.798857A89.234286 89.234286 0 0 0 54.857143 361.398857V443.172571a89.234286 89.234286 0 0 0 88.941714 88.941715h736.402286zM726.308571 723.017143a35.84 35.84 0 1 0 71.68 0 35.84 35.84 0 0 0-71.68 0z m0-320.731429a35.84 35.84 0 1 0 71.68 0 35.84 35.84 0 0 0-71.68 0z m0-327.168a35.84 35.84 0 1 0 71.68 0 35.84 35.84 0 0 0-71.68 0z"  horiz-adv-x="1024" />
      
      <glyph glyph-name="guanliyuanrenzheng" unicode="&#60108;" d="M755.2 115.2L896 256l59.733333-59.733333-200.533333-200.533334-119.466667 119.466667 59.733334 59.733333 59.733333-59.733333zM597.333333 128v-85.333333H256v170.666666h4.266667l85.333333 85.333334h375.466667l85.333333-85.333334h-426.666667l-38.4-38.4V128h256z m213.333334 81.066667z m-85.333334 324.266666c0-106.666667-85.333333-192-192-192S341.333333 426.666667 341.333333 533.333333 426.666667 725.333333 533.333333 725.333333 725.333333 640 725.333333 533.333333z m-85.333333 0C640 593.066667 593.066667 640 533.333333 640S426.666667 593.066667 426.666667 533.333333s46.933333-106.666667 106.666666-106.666666S640 473.6 640 533.333333z"  horiz-adv-x="1024" />
      
      <glyph glyph-name="cangku_cangchuguanli_o" unicode="&#60241;" d="M512 405.333333V426.666667h42.666667v-25.6c12.8-4.266667 25.6-8.533333 38.4-17.066667l17.066666 17.066667 29.866667-29.866667-17.066667-17.066667c8.533333-12.8 12.8-25.6 17.066667-38.4h25.6v-42.666666H640c-4.266667-12.8-8.533333-25.6-17.066667-38.4l17.066667-17.066667-29.866667-29.866667-17.066666 17.066667c-12.8-8.533333-25.6-12.8-38.4-17.066667v-17.066666h-42.666667v25.6c-12.8 4.266667-25.6 8.533333-38.4 17.066666l-17.066667-17.066666-29.866666 25.6 17.066666 17.066666c-8.533333 12.8-12.8 25.6-17.066666 38.4h-21.333334v42.666667h25.6c4.266667 12.8 8.533333 25.6 17.066667 38.4l-21.333333 17.066667 29.866666 29.866666 17.066667-17.066666c12.8 8.533333 25.6 12.8 38.4 17.066666z m328.533333-320v42.666667h85.333334v217.6l-234.666667 234.666667-21.333333-21.333334-29.866667 29.866667L691.2 640l320-320h-42.666667V85.333333h-128zM217.6 85.333333h-128v234.666667H42.666667L362.666667 640l51.2-51.2-29.866667-29.866667-21.333333 21.333334L128 345.6V128h85.333333v-42.666667z m597.333333 234.666667V85.333333h-554.666666v234.666667H213.333333L533.333333 640l320-320h-38.4z m-512 25.6V128h469.333334v217.6l-234.666667 234.666667-234.666667-234.666667z m230.4-110.933333c34.133333 0 64 29.866667 64 64s-29.866667 64-64 64-64-29.866667-64-64 29.866667-64 64-64z m0 42.666666c-12.8 0-21.333333 8.533333-21.333333 21.333334s8.533333 21.333333 21.333333 21.333333 21.333333-8.533333 21.333334-21.333333-8.533333-21.333333-21.333334-21.333334z"  horiz-adv-x="1024" />
      
      <glyph glyph-name="hulianwangyingxiao-" unicode="&#59329;" d="M1004 632.8H20c-4.8 0-8 3.2-8 8V876c0 4.8 3.2 8 8 8h984c4.8 0 8-3.2 8-8v-235.2c0-4.8-3.2-8-8-8z m-976 16h968V868H28v-219.2zM1004-124H20c-8.8 0-16 7.2-16 16V876c0 8.8 7.2 16 16 16h984c8.8 0 16-7.2 16-16v-984c0-8.8-7.2-16-16-16z m-968 32h952V860H36v-952zM1004-9.6H20c-4.8 0-8 3.2-8 8s3.2 8 8 8h984c4.8 0 8-3.2 8-8 0-4-3.2-8-8-8zM660.8 794.4V720h-74.4v74.4h74.4m0 16h-74.4c-8.8 0-16-7.2-16-16V720c0-8.8 7.2-16 16-16h74.4c8.8 0 16 7.2 16 16v74.4c0 8.8-7.2 16-16 16zM884 794.4V720h-74.4v74.4h74.4m0 16h-74.4c-8.8 0-16-7.2-16-16V720c0-8.8 7.2-16 16-16h74.4c8.8 0 16 7.2 16 16v74.4c0 8.8-7.2 16-16 16zM229.6 388l-84-40v-24l84-39.2v25.6l-56 26.4 56 25.6v25.6zM299.2 362.4c-13.6 0-24.8-4.8-35.2-13.6-9.6-8.8-14.4-20.8-14.4-35.2 0-14.4 4.8-25.6 14.4-34.4 9.6-8.8 21.6-13.6 35.2-13.6 14.4 0 27.2 6.4 39.2 18.4l-15.2 17.6c-7.2-8.8-14.4-12.8-23.2-12.8-6.4 0-12 2.4-17.6 6.4-4.8 4-7.2 10.4-7.2 18.4 0 8 2.4 14.4 7.2 18.4 4.8 4.8 10.4 6.4 17.6 6.4 4 0 8.8-0.8 12.8-3.2 4-1.6 8-4.8 11.2-8l13.6 17.6c-5.6 5.6-11.2 9.6-18.4 12-6.4 4.8-13.6 5.6-20 5.6zM398.4 362.4c-14.4 0-25.6-4.8-35.2-13.6-9.6-9.6-14.4-20.8-14.4-34.4 0-13.6 4.8-24.8 14.4-34.4 9.6-9.6 20.8-13.6 35.2-13.6 14.4 0 25.6 4.8 35.2 13.6 9.6 9.6 14.4 20.8 14.4 34.4 0 13.6-4.8 24.8-14.4 34.4-9.6 8.8-20.8 13.6-35.2 13.6z m0-73.6c-6.4 0-12 2.4-16.8 7.2-4 4.8-6.4 11.2-6.4 18.4 0 8 2.4 13.6 6.4 18.4 4 4.8 9.6 7.2 16.8 7.2 6.4 0 12-2.4 16.8-7.2 4-4.8 6.4-11.2 6.4-18.4 0-8-2.4-13.6-6.4-18.4-4.8-4.8-10.4-7.2-16.8-7.2zM558.4 396.8h-26.4v-45.6c-7.2 8-16.8 12-28 12s-21.6-4.8-29.6-13.6c-8.8-8.8-12.8-20-12.8-34.4 0-13.6 4-25.6 12.8-35.2 8.8-9.6 18.4-14.4 29.6-14.4 11.2 0 20 4.8 27.2 13.6v-12h26.4V396.8h0.8z m-48-108c-6.4 0-11.2 2.4-16 7.2-4.8 4.8-6.4 11.2-6.4 18.4 0 7.2 2.4 13.6 6.4 19.2 4 4.8 9.6 8 16 8s11.2-2.4 15.2-7.2c4-4.8 6.4-11.2 6.4-19.2 0-7.2-2.4-13.6-6.4-18.4-4-5.6-8.8-8-15.2-8zM624.8 362.4c-12.8 0-24-4-33.6-12.8-9.6-8.8-14.4-20-14.4-35.2 0-14.4 4.8-26.4 13.6-35.2 9.6-8.8 20.8-12.8 35.2-12.8s26.4 4.8 36.8 15.2l-14.4 16c-5.6-6.4-13.6-8.8-22.4-8.8-5.6 0-10.4 1.6-15.2 4.8-4.8 3.2-7.2 7.2-8 12.8h68V320c0 13.6-4.8 24-13.6 32-8 6.4-19.2 10.4-32 10.4z m-20.8-38.4c0.8 5.6 3.2 9.6 7.2 12.8 4 3.2 8.8 4.8 14.4 4.8 4.8 0 9.6-1.6 12.8-4.8 3.2-3.2 5.6-7.2 6.4-12.8h-40.8zM776.8 407.2H752L679.2 248H704l72.8 159.2zM794.4 388v-25.6l56-25.6-56-26.4v-25.6l84 39.2v24l-84 40z"  horiz-adv-x="1024" />
      
      <glyph glyph-name="hulianwangyingxiao-1" unicode="&#59352;" d="M1004 640H20c-4.8 0-8 3.2-8 8V860c0 4.8 3.2 8 8 8h984c4.8 0 8-3.2 8-8V648c0-4.8-3.2-8-8-8z m-976 16h968V852H28V656zM1004-108H20c-8.8 0-16 7.2-16 16V860c0 8.8 7.2 16 16 16h984c8.8 0 16-7.2 16-16v-952.8c0-8-7.2-15.2-16-15.2z m-968 32h952V844H36v-920zM256 377.6c-1.6 0-3.2 0.8-4.8 1.6l-68 51.2-68-51.2c-2.4-1.6-5.6-2.4-8-0.8-2.4 1.6-4.8 4-4.8 7.2V648c0 4.8 3.2 8 8 8H256c4.8 0 8-3.2 8-8v-262.4c0-3.2-1.6-5.6-4.8-7.2-0.8-0.8-2.4-0.8-3.2-0.8z m-72.8 71.2c1.6 0 3.2-0.8 4.8-1.6l60-45.6V640H118.4v-238.4l60 45.6c0.8 0.8 3.2 1.6 4.8 1.6zM871.2 280H372c-4.8 0-8 3.2-8 8s3.2 8 8 8h499.2c4.8 0 8-3.2 8-8s-4-8-8-8zM871.2 488H372c-4.8 0-8 3.2-8 8s3.2 8 8 8h499.2c4.8 0 8-3.2 8-8s-4-8-8-8zM871.2 72H372c-4.8 0-8 3.2-8 8s3.2 8 8 8h499.2c4.8 0 8-3.2 8-8 0-4-4-8-8-8zM633.6 746.4h-66.4c-4.8 0-8 3.2-8 8s3.2 8 8 8h66.4c4.8 0 8-3.2 8-8s-4-8-8-8zM785.6 746.4h-66.4c-4.8 0-8 3.2-8 8s3.2 8 8 8h66.4c4.8 0 8-3.2 8-8s-4-8-8-8zM937.6 746.4h-66.4c-4.8 0-8 3.2-8 8s3.2 8 8 8h66.4c4.8 0 8-3.2 8-8s-4-8-8-8z"  horiz-adv-x="1024" />
      
      <glyph glyph-name="hulianwangyingxiao-2" unicode="&#59353;" d="M596 77.6v-80.8h-168v80.8h168m0 32h-168c-17.6 0-32-14.4-32-32v-80.8c0-17.6 14.4-32 32-32h167.2c17.6 0 32 14.4 32 32v80.8c0.8 17.6-13.6 32-31.2 32zM722.4-42.4v-45.6H301.6v45.6h420.8m0 32H301.6c-17.6 0-32-14.4-32-32v-45.6c0-17.6 14.4-32 32-32h420.8c17.6 0 32 14.4 32 32v45.6c0 17.6-14.4 32-32 32zM972 84.8H52c-26.4 0-48 21.6-48 48V840c0 26.4 21.6 48 48 48h919.2c26.4 0 48-21.6 48-48v-707.2c0.8-26.4-20.8-48-47.2-48zM52 856c-8.8 0-16-7.2-16-16v-707.2c0-8.8 7.2-16 16-16h919.2c8.8 0 16 7.2 16 16V840c0 8.8-7.2 16-16 16H52zM343.2 248.8H89.6c-3.2 0-6.4 1.6-7.2 4.8-1.6 3.2-0.8 6.4 1.6 8.8l126.4 126.4c3.2 3.2 8 3.2 11.2 0l126.4-126.4c2.4-2.4 3.2-5.6 1.6-8.8-0.8-3.2-3.2-4.8-6.4-4.8z m-234.4 16h214.4L216 372 108.8 264.8zM519.2 248.8h-176c-2.4 0-4 0.8-5.6 2.4l-60 60c-2.4 2.4-3.2 7.2-0.8 10.4l98.4 151.2c3.2 4.8 10.4 4.8 13.6 0l137.6-212c1.6-2.4 1.6-5.6 0-8-1.6-2.4-4.8-4-7.2-4z m-172.8 16H504L380.8 453.6l-88-136 53.6-52.8zM650.4 248.8H519.2c-2.4 0-5.6 1.6-6.4 4l-41.6 64c-1.6 3.2-1.6 7.2 0.8 9.6l57.6 63.2c1.6 1.6 4 2.4 5.6 2.4 2.4 0 4-0.8 5.6-2.4l115.2-128c2.4-2.4 2.4-5.6 1.6-8.8-1.6-2.4-4-4-7.2-4z m-127.2 16H632L535.2 371.2 488 319.2l35.2-54.4zM970.4 248.8c-3.2 0-5.6 1.6-7.2 4L764.8 606.4l-160.8-288 52-56.8c3.2-3.2 2.4-8-0.8-11.2-3.2-3.2-8-2.4-11.2 0.8l-56 60.8c-2.4 2.4-2.4 6.4-0.8 9.6l170.4 304.8c3.2 4.8 11.2 4.8 13.6 0L976 260c2.4-4 0.8-8.8-3.2-11.2h-2.4zM1004 248.8H20c-4.8 0-8 3.2-8 8s3.2 8 8 8h984c4.8 0 8-3.2 8-8s-3.2-8-8-8zM645.6 638.4c-56 0-100.8 45.6-100.8 100.8 0 56 45.6 100.8 100.8 100.8 56 0 100.8-45.6 100.8-100.8 0-55.2-45.6-100.8-100.8-100.8z m0 186.4C598.4 824.8 560 786.4 560 740s38.4-84.8 84.8-84.8c47.2 0 84.8 38.4 84.8 84.8S692 824.8 645.6 824.8zM640.8 692.8v8c-9.6 1.6-18.4 5.6-26.4 12.8l10.4 12.8c5.6-4.8 11.2-8.8 16-9.6v16.8c-8 2.4-13.6 4.8-17.6 8-4 3.2-5.6 8-5.6 15.2 0 6.4 2.4 12 6.4 16s9.6 6.4 16.8 7.2v5.6h12v-5.6c7.2-0.8 15.2-4 22.4-9.6l-9.6-13.6c-4.8 3.2-8.8 5.6-13.6 7.2v-16c8-2.4 14.4-4.8 18.4-8.8 4-3.2 5.6-8.8 5.6-15.2s-2.4-12-6.4-16-10.4-6.4-17.6-7.2v-8h-11.2z m0 72c-3.2-0.8-4.8-3.2-4.8-6.4s1.6-5.6 4.8-7.2v13.6z m17.6-40.8c0 1.6-0.8 3.2-1.6 4-0.8 0.8-2.4 2.4-4.8 3.2v-13.6c4.8 0 6.4 2.4 6.4 6.4zM362.4 592c-56 0-100.8 45.6-100.8 100.8 0 56 45.6 100.8 100.8 100.8 56 0 100.8-45.6 100.8-100.8C464 637.6 418.4 592 362.4 592z m0 186.4c-47.2 0-84.8-38.4-84.8-84.8S316 608 362.4 608 448 646.4 448 692.8s-38.4 85.6-85.6 85.6zM357.6 646.4v8c-9.6 1.6-18.4 5.6-26.4 12.8l10.4 12.8c5.6-4.8 11.2-8.8 16-9.6v16.8c-8 2.4-13.6 4.8-17.6 8-4 3.2-5.6 8-5.6 15.2 0 6.4 2.4 12 6.4 16s9.6 6.4 16.8 7.2v5.6h12v-5.6c7.2-0.8 15.2-4 22.4-9.6l-9.6-13.6c-4.8 3.2-8.8 5.6-13.6 7.2v-16c8-2.4 14.4-4.8 18.4-8.8 4-3.2 5.6-8.8 5.6-15.2s-2.4-12-6.4-16-10.4-6.4-17.6-7.2v-8h-11.2z m0 72c-3.2-0.8-4.8-3.2-4.8-6.4s1.6-5.6 4.8-7.2v13.6z m18.4-41.6c0 1.6-0.8 3.2-1.6 4-0.8 0.8-2.4 2.4-4.8 3.2v-13.6c4 0.8 6.4 3.2 6.4 6.4zM188 424.8c-56 0-100.8 45.6-100.8 100.8 0 56 45.6 100.8 100.8 100.8 56 0 100.8-45.6 100.8-100.8 0-55.2-45.6-100.8-100.8-100.8z m0 186.4c-47.2 0-84.8-38.4-84.8-84.8s38.4-84.8 84.8-84.8S272.8 480 272.8 526.4s-38.4 84.8-84.8 84.8zM183.2 479.2v8c-9.6 1.6-18.4 5.6-26.4 12.8l10.4 12.8c5.6-4.8 11.2-8.8 16-9.6V520c-8 2.4-13.6 4.8-17.6 8-4 3.2-5.6 8-5.6 15.2 0 6.4 2.4 12 6.4 16s9.6 6.4 16.8 7.2v5.6h12v-5.6c7.2-0.8 15.2-4 22.4-9.6L208.8 544c-4.8 3.2-8.8 5.6-13.6 7.2v-16c8-2.4 14.4-4.8 18.4-8.8 4-3.2 5.6-8.8 5.6-15.2 0-6.4-2.4-12-6.4-16s-10.4-6.4-17.6-7.2v-8h-12z m0 72c-3.2-0.8-4.8-3.2-4.8-6.4s1.6-5.6 4.8-7.2v13.6z m17.6-40.8c0 1.6-0.8 3.2-1.6 4-0.8 0.8-2.4 2.4-4.8 3.2V504c4.8 0.8 6.4 3.2 6.4 6.4zM556 170.4h-88c-4.8 0-8 3.2-8 8s3.2 8 8 8h87.2c4.8 0 8-3.2 8-8 0.8-4-3.2-8-7.2-8z"  horiz-adv-x="1024" />
      
      <glyph glyph-name="yingxiao2" unicode="&#59237;" d="M249.508859-128H94.442596a20.861467 20.861467 0 0 0-20.861467 20.861467V355.091967a20.861467 20.861467 0 0 0 20.861467 20.861467h155.066263a20.861467 20.861467 0 0 0 20.861467-20.861467V-107.138533a20.861467 20.861467 0 0 0-20.861467-20.861467zM115.304063-86.277066h113.343329V334.230501H115.304063zM600.982852-128h-185.965075a20.861467 20.861467 0 0 0-20.861467 20.861467V438.263655a20.861467 20.861467 0 0 0 20.861467 20.861467h185.965075a20.861467 20.861467 0 0 0 20.861467-20.861467V-107.138533a20.861467 20.861467 0 0 0-20.861467-20.861467z m-165.12745 41.722934h144.242142V417.402189h-144.242142zM941.501595-127.976158H746.524366a20.861467 20.861467 0 0 0-20.861467 20.861466V528.933551a20.861467 20.861467 0 0 0 20.861467 20.861466h194.977229a20.861467 20.861467 0 0 0 20.861467-20.861466v-636.048243a20.861467 20.861467 0 0 0-20.861467-20.861466z m-174.127683 41.722933h153.266216V508.084005H767.385832zM661.755285 566.257695a20.801863 20.801863 0 0 0-13.51823 4.98291L355.258615 820.76759 65.379593 597.168428a20.861467 20.861467 0 0 0-29.265658 3.778906 20.861467 20.861467 0 0 0 3.826589 29.313341l303.266123 233.922608a20.861467 20.861467 0 0 0 26.225844-0.631805l291.714832-248.501792L914.40553 850.62929l-141.428824-8.940629A20.861467 20.861467 0 0 0 750.839709 861.191153a20.861467 20.861467 0 0 0 19.502491 22.136996L970.052002 895.940396a20.873388 20.873388 0 0 0 20.48-12.576484 20.861467 20.861467 0 0 0-4.959068-23.519814L675.976845 571.848568a20.825704 20.825704 0 0 0-14.22156-5.590873z"  horiz-adv-x="1024" />
      
      <glyph glyph-name="rukuguanli" unicode="&#58919;" d="M927.1 415.1c-7.3 0-14.7 2.5-20.7 7.6L511.2 757.9 116 422.7c-13.5-11.4-33.7-9.8-45.1 3.7-11.4 13.5-9.8 33.7 3.7 45.1L490.5 824.3c11.9 10.1 29.5 10.1 41.4 0l415.9-352.8c13.5-11.4 15.1-31.6 3.7-45.1-6.4-7.5-15.4-11.3-24.4-11.3zM159.1-63.6c-17.7 0-32 14.3-32 32V485.8c0 17.7 14.3 32 32 32s32-14.3 32-32v-517.4c0-17.7-14.3-32-32-32zM863.4 256.1c-17.7 0-32 14.3-32 32V485.8c0 17.7 14.3 32 32 32s32-14.3 32-32V288c0-17.6-14.4-31.9-32-31.9zM595.2-63.3h-72c-6.6 0-12 5.4-12 12v72c0 6.6 5.4 12 12 12h72c6.6 0 12-5.4 12-12v-72c0-6.6-5.4-12-12-12zM739.2-63.3h-72c-6.6 0-12 5.4-12 12v72c0 6.6 5.4 12 12 12h72c6.6 0 12-5.4 12-12v-72c0-6.6-5.4-12-12-12zM595.9 63.8h-72c-6.6 0-12 5.4-12 12v72c0 6.6 5.4 12 12 12h72c6.6 0 12-5.4 12-12v-72c0-6.6-5.4-12-12-12zM595.9 191.3h-72c-6.6 0-12 5.4-12 12v72c0 6.6 5.4 12 12 12h72c6.6 0 12-5.4 12-12v-72c0-6.6-5.4-12-12-12zM739.2 64.5h-72c-6.6 0-12 5.4-12 12v72c0 6.6 5.4 12 12 12h72c6.6 0 12-5.4 12-12v-72c0-6.6-5.4-12-12-12zM883.2-63.3h-72c-6.6 0-12 5.4-12 12v72c0 6.6 5.4 12 12 12h72c6.6 0 12-5.4 12-12v-72c0-6.6-5.4-12-12-12zM447.1 87.2H255c-13.8 0-25 11.2-25 25s11.2 25 25 25h192c13.8 0 25-11.2 25-25s-11.1-25-24.9-25zM255 87.2c-6.4 0-12.8 2.4-17.7 7.3-9.8 9.8-9.7 25.6 0 35.4l64.1 63.9c9.8 9.8 25.6 9.7 35.4 0 9.8-9.8 9.7-25.6 0-35.4l-64.1-63.9c-4.9-4.9-11.3-7.3-17.7-7.3zM319.1 23.5c-6.4 0-12.8 2.4-17.6 7.3l-64 63.7c-9.8 9.7-9.8 25.6-0.1 35.4 9.7 9.8 25.6 9.8 35.4 0.1l64-63.7c9.8-9.7 9.8-25.6 0.1-35.4-5-4.9-11.4-7.4-17.8-7.4z"  horiz-adv-x="1024" />
      
      <glyph glyph-name="dizhiguanli" unicode="&#59028;" d="M528-32c-56.32 0-336 429.44-336 592a336 336 0 0 0 672 0c0-162.56-279.68-592-336-592z m0 864a272.32 272.32 0 0 1-272-272c0-131.52 206.08-432 272-514.24C593.92 128 800 428.48 800 560A272.32 272.32 0 0 1 528 832zM528 416a144 144 0 1 0 144 144 144 144 0 0 0-144-144z m0 224a80 80 0 1 1 80-80 80 80 0 0 1-80 80z m-16-768C256-128 0-62.08 0 64c0 71.04 83.2 128 234.24 163.52l14.08-62.4C121.6 136 64 92.48 64 64c0-52.16 174.4-128 448-128s448 75.84 448 128c0 28.48-58.56 72.64-186.88 101.44l14.08 64C939.84 192 1024 135.36 1024 64c0-126.08-256-192-512-192z"  horiz-adv-x="1024" />
      
      <glyph glyph-name="fensiguanli" unicode="&#58979;" d="M510.623 381.49c-97.098 0-176.093 78.995-176.093 176.092 0 97.098 78.995 176.093 176.093 176.093s176.093-78.995 176.093-176.093c-0.001-97.097-78.996-176.092-176.093-176.092z m0 292.185c-64.014 0-116.093-52.079-116.093-116.093S446.609 441.49 510.623 441.49s116.093 52.079 116.093 116.092-52.08 116.093-116.093 116.093zM738.351 34.324H282.894a50.068 50.068 0 0 0-36.819 16.196c-9.471 10.331-14.204 24.276-12.986 38.261 6.024 69.171 37.563 133.266 88.809 180.479 51.557 47.5 118.581 73.659 188.726 73.659 70.146 0 137.169-26.159 188.726-73.659 51.245-47.213 82.784-111.308 88.809-180.478 1.218-13.985-3.516-27.931-12.986-38.262-9.438-10.292-22.858-16.196-36.822-16.196z m-444.284 60h433.111c-6.874 50.101-30.938 96.217-68.485 130.809-40.445 37.264-93.031 57.786-148.07 57.786-55.038 0-107.624-20.522-148.07-57.786-37.548-34.592-61.612-80.707-68.486-130.809zM149.788 91.238H82.546c-16.568 0-30 13.432-30 30 0 77.837 27.935 150.436 78.658 204.424 26.873 28.604 58.882 50.563 94.215 65.104a158.724 158.724 0 0 0-13.421 13.364c-28.661 32.145-44.445 75.658-44.445 122.525 0 58.032 28.668 112.201 76.687 144.902 13.695 9.327 32.356 5.785 41.683-7.909 9.326-13.695 5.785-32.356-7.909-41.683-31.597-21.518-50.46-57.147-50.46-95.31 0-32.123 10.38-61.456 29.229-82.595 18.958-21.262 44.734-32.539 74.542-32.61 16.547-0.04 29.938-13.469 29.929-30.016-0.009-16.547-13.413-29.962-29.96-29.984-60.391-0.081-115.921-23.83-156.36-66.872-33.708-35.878-54.728-82.42-60.656-133.34h35.512c16.568 0 30-13.432 30-30s-13.434-30-30.002-30zM941.454 91.238h-67.241c-16.568 0-30 13.432-30 30s13.432 30 30 30h35.512c-5.929 50.92-26.948 97.462-60.656 133.34-40.439 43.042-95.97 66.791-156.36 66.872-16.547 0.022-29.951 13.438-29.96 29.984-0.009 16.546 13.382 29.976 29.929 30.016 29.808 0.071 55.584 11.348 74.541 32.61 18.849 21.14 29.229 50.473 29.229 82.595 0 38.163-18.863 73.792-50.46 95.31-13.694 9.326-17.235 27.988-7.909 41.683 9.325 13.693 27.986 17.235 41.683 7.909 48.019-32.701 76.687-86.87 76.687-144.902 0-46.867-15.784-90.38-44.445-122.525a158.724 158.724 0 0 0-13.421-13.364c35.332-14.54 67.342-36.5 94.215-65.104 50.724-53.988 78.658-126.587 78.658-204.424-0.002-16.568-13.434-30-30.002-30z"  horiz-adv-x="1024" />
      
      <glyph glyph-name="wendangguanlixitong-wendangguanlixitongtubiao" unicode="&#58952;" d="M889.457778 206.364444l-25.941334-8.021333c0.739556-5.603556 1.649778-11.036444 1.649778-16.810667 0-5.688889-0.910222-11.150222-1.820444-16.668444l26.112-8.163556c6.144-1.706667 11.207111-5.888 14.193778-11.377777 2.958222-5.688889 3.612444-12.231111 1.507555-18.204445-4.152889-12.401778-17.92-19.086222-30.890667-15.246222l-26.396444 8.248889a124.586667 124.586667 0 0 0-20.252444-27.221333l16.071111-21.248c3.925333-4.977778 5.575111-11.377778 4.494222-17.635556a22.954667 22.954667 0 0 0-9.813333-15.160889 25.144889 25.144889 0 0 0-34.332445 5.205333l-16.071111 21.304889a131.185778 131.185778 0 0 0-33.251556-10.752v-25.969777c0-12.942222-10.894222-23.523556-24.462222-23.523556-13.596444 0-24.632889 10.581333-24.632889 23.523556v25.969777a129.536 129.536 0 0 0-33.137777 10.752l-16.156445-21.304889a25.088 25.088 0 0 0-34.247111-5.205333 22.897778 22.897778 0 0 0-9.813333 15.160889 22.641778 22.641778 0 0 0 4.408889 17.635556l16.156444 21.475555a128.853333 128.853333 0 0 0-20.878222 26.823111l-25.799111-8.078222c-12.999111-3.982222-26.737778 2.759111-30.862223 15.160889a23.04 23.04 0 0 0 15.644445 29.582222l25.856 8.049778c-0.625778 5.603556-1.564444 11.064889-1.564445 16.867555 0 5.688889 0.910222 11.207111 1.763556 16.725334l-26.112 7.992889c-12.885333 4.152889-19.797333 17.408-15.644444 29.724444 4.181333 12.344889 17.92 19.057778 30.890666 15.189333l26.282667-8.305777c5.688889 9.813333 12.231111 19.171556 20.366222 27.306666l-16.071111 21.304889a22.755556 22.755556 0 0 0 5.347556 32.796445 25.287111 25.287111 0 0 0 34.304-5.233778l16.099555-21.333333a137.358222 137.358222 0 0 0 33.336889 10.808888v25.912889c0 12.942222 10.837333 23.523556 24.462222 23.523556 13.539556 0 24.576-10.496 24.576-23.523556v-25.884444c11.662222-2.076444 22.670222-6.030222 33.109334-10.837333l16.213333 21.333333a25.116444 25.116444 0 0 0 34.190222 5.233778 22.840889 22.840889 0 0 0 5.518222-32.796445l-16.241777-21.504c8.049778-8.049778 15.36-16.896 20.878222-26.851555l25.799111 8.049777c12.970667 3.982222 26.737778-2.844444 30.862222-15.189333 4.266667-12.316444-2.844444-25.571556-15.701333-29.610667z m-159.232 57.514667c-47.388444 0-85.902222-36.949333-85.902222-82.346667 0-45.511111 38.513778-82.318222 85.902222-82.318222s85.902222 36.807111 85.902222 82.318222c0 45.397333-38.513778 82.346667-85.902222 82.346667zM735.431111 737.735111h-59.079111c0 17.066667-16.241778 29.582222-33.109333 29.582222H145.408a30.663111 30.663111 0 0 1-30.435556-30.976V121.457778s32.398222-92.899556 85.617778-92.899556h434.744889a175.815111 175.815111 0 0 0-82.716444 75.320889H205.880889s-31.374222 10.581333-31.374222 31.857778l363.491555 0.227555 1.28-2.616888a175.985778 175.985778 0 0 0-9.756444 56.917333c0 46.819556 18.545778 91.676444 51.683555 124.785778a176.497778 176.497778 0 0 0 95.488 48.981333l-2.474666-0.227556 1.649777 328.248889H705.422222l0.455111-325.404444c20.906667 0 40.704-3.726222 59.249778-10.325333V703.431111s-4.892444 34.304-29.667555 34.304zM230.712889 384.398222H170.951111v59.818667H230.684444v-59.818667z m0 111.530667H170.951111v59.847111H230.684444v-59.847111z m0 106.097778H170.951111V661.845333H230.684444v-59.875555z m387.896889-217.628445H274.204444v59.818667h344.376889v-59.818667z m0 111.530667H274.204444v59.847111h344.376889v-59.847111z m0 106.097778H274.204444V661.845333h344.376889v-59.875555z"  horiz-adv-x="1052" />
      
      <glyph glyph-name="bumenguanli" unicode="&#58885;" d="M311.25 551.437h36.699c4.655-22.876 14.22-43.899 27.208-62.334l-26.032-26.044c-13.015-13.019-13.015-34.102 0-47.121 13.012-13.014 34.101-13.014 47.113 0l27.597 27.578c16.431-10.184 34.459-18.007 54.014-21.992v-36.69c0-18.419 14.903-33.325 33.323-33.325 18.413 0 33.319 14.905 33.319 33.325v36.69c21.834 4.44 42.104 13.178 59.938 25.265l26.225-26.23c13.018-13.013 34.101-13.013 47.122 0 13.014 13.02 13.014 34.135 0 47.154l-26.878 26.895c11.061 17.098 19.29 36.197 23.489 56.831h36.707c18.418 0 33.317 14.898 33.317 33.318 0 18.419-14.899 33.319-33.317 33.319h-36.707c-4.068 20.014-12.071 38.509-22.645 55.223l27.135 27.135c13.018 13.013 13.018 34.101 0 47.116-13.015 13.02-34.097 13.02-47.118 0l-25.966-25.968c-18.19 12.631-38.882 21.835-61.303 26.408v36.688c0 18.42-14.906 33.324-33.319 33.324-18.419 0-33.323-14.904-33.323-33.324v-36.688c-21.217-4.326-40.9-12.801-58.375-24.373l-26.192 26.181c-12.981 13.013-34.105 13.013-47.117 0-13.018-13.015-13.018-34.104 0-47.116l26.19-26.182c-11.614-17.47-20.106-37.178-24.404-58.424h-36.7c-18.419 0-33.326-14.9-33.326-33.319-0.001-18.422 14.907-33.32 33.326-33.32z m199.92 133.279c55.118 0 99.961-44.841 99.961-99.961s-44.844-99.961-99.961-99.961c-55.126 0-99.96 44.841-99.96 99.961s44.834 99.961 99.96 99.961zM877.694 218.23h-33.322v66.643c0 18.412-14.901 33.319-33.319 33.319H211.284c-18.415 0-33.32-14.907-33.32-33.319v-66.643h-33.317c-36.807 0-66.643-29.837-66.643-66.642V18.31c0-36.807 29.836-66.643 66.643-66.643h133.276c36.807 0 66.645 29.836 66.645 66.643V151.589c0 36.805-29.838 66.642-66.645 66.642h-33.316V251.55h533.127v-33.319H744.41c-36.801 0-66.636-29.837-66.636-66.642V18.31c0-36.807 29.835-66.643 66.636-66.643h133.284c36.8 0 66.638 29.836 66.638 66.643V151.589c0 36.805-29.838 66.641-66.638 66.641z"  horiz-adv-x="1024" />
      
      <glyph glyph-name="xiaoshoujieguanli-" unicode="&#58944;" d="M897.22 240.38h-36.11v129c0 35.29-32.06 64-71.47 64H544.85v96.24h56.55a64.07 64.07 0 0 1 64 64v96a64.07 64.07 0 0 1-64 64h-176a64.07 64.07 0 0 1-64-64v-96a64.07 64.07 0 0 1 64-64h55.44v-96.26h-245.1c-39.41 0-71.47-28.71-71.47-64v-129h-35.49a64.07 64.07 0 0 1-64-64v-96a64.07 64.07 0 0 1 64-64h146a64.07 64.07 0 0 1 64 64v96a64.07 64.07 0 0 1-64 64h-46.52V367.29a12.91 12.91 0 0 0 7.47 2.07h245.12v-129H440a64.07 64.07 0 0 1-64-64v-96a64.07 64.07 0 0 1 64-64h146a64.07 64.07 0 0 1 64 64v96a64.07 64.07 0 0 1-64 64h-41.15v129h244.8a12.92 12.92 0 0 0 7.47-2.07v-126.91h-45.9a64.07 64.07 0 0 1-64-64v-96a64.07 64.07 0 0 1 64-64h146a64.07 64.07 0 0 1 64 64v96a64.07 64.07 0 0 1-64 64zM425.4 593.68v95.88l0.06 0.06h175.89l0.06-0.06v-95.89l-0.06-0.06H425.46zM274.78 176.32v-95.89l-0.06-0.06H128.84l-0.06 0.06v95.89l0.06 0.06h145.88z m311.22 0v-95.88l-0.06-0.06H440.06l-0.06 0.06v95.88l0.06 0.06h145.88z m311.22-95.88l-0.06-0.06H751.28l-0.06 0.06v95.88l0.06 0.06h145.88l0.06-0.06z"  horiz-adv-x="1024" />
      
      <glyph glyph-name="yingxiaozhushou" unicode="&#59413;" d="M85.7 230.9h90v-295h-90v295z m234.2-294h90V358.2h-90v-421.3z m590.4 644L702.7 788.4 639.1 852l-63.6-63.6-207.6-207.5 63.6-63.6L594 679.8V-63h90V679.8l162.5-162.5 63.8 63.6z m-62-104.5v-539.5h90V476.4h-90z"  horiz-adv-x="1024" />
      
      <glyph glyph-name="caiwuguanli1" unicode="&#58884;" d="M620.689386 319.156332h203.180158c12.79875 0 23.197735 10.398984 23.197735 23.197735v77.192462c0 12.79875-10.398984 23.197735-23.197735 23.197734H689.182697c-17.698272 0-28.797188 18.898154-20.298018 34.396641L881.263939 861.603359C889.763109 877.101846 878.664193 896 860.965921 896H737.977932c-8.39918 0-16.198418-4.599551-20.298018-11.998828L532.398008 548.533932c-8.799141-15.998438-31.796895-15.998438-40.596036 0L306.520066 884.001172c-4.0996 7.399277-11.898838 11.998828-20.298017 11.998828h-122.98799c-17.698272 0-28.797188-18.898154-20.298018-34.396641L355.315301 477.040914c8.49917-15.398496-2.599746-34.396641-20.298018-34.396641H199.130554c-12.79875 0-23.197735-10.398984-23.197735-23.197735v-77.192461c0-12.79875 10.398984-23.197735 23.197735-23.197735h198.580607c12.79875 0 23.197735-10.398984 23.197735-23.197734v-6.799336c0-12.79875-10.398984-23.197735-23.197735-23.197735H181.332292c-12.79875 0-23.197735-10.398984-23.197735-23.197735v-94.890733c0-12.79875 10.398984-23.197735 23.197735-23.197735h216.378869c12.79875 0 23.197735-10.398984 23.197735-23.197734v-206.179865c0-12.79875 10.398984-23.197735 23.197734-23.197735h130.187287c12.79875 0 23.197735 10.398984 23.197734 23.197735V101.57758c0 12.79875 10.398984 23.197735 23.197735 23.197735h220.778439c12.79875 0 23.197735 10.398984 23.197735 23.197735v94.890733c0 12.79875-10.398984 23.197735-23.197735 23.197734H620.689386c-12.79875 0-23.197735 10.398984-23.197735 23.197735V296.058588c0 12.69876 10.298994 23.097744 23.197735 23.097744z"  horiz-adv-x="1024" />
      
      <glyph glyph-name="jihuaguanli" unicode="&#58887;" d="M994.8 687.2H874.6c-15.7 0-28.4 12.8-28.3 28.5l0.7 108c0.1 15.7-12.6 28.5-28.3 28.5H628.3c-15.6 0-28.2-12.6-28.3-28.2l-0.7-108.7c-0.1-15.6-12.8-28.2-28.3-28.2H451.2c-15.7 0-28.4 12.8-28.3 28.5l0.7 108c0.1 15.7-12.6 28.5-28.3 28.5H204.9c-15.6 0-28.2-12.6-28.3-28.2l-0.7-108.7c-0.1-15.6-12.8-28.2-28.3-28.2H28.3C12.7 687.2 0 674.5 0 658.8l0.9-715.2c0-15.6 12.7-28.3 28.3-28.3h966.4c15.7 0 28.4 12.7 28.3 28.4l-0.9 715.2c0.1 15.6-12.6 28.3-28.2 28.3z m-701.5 94.4h13.9c15.6 0 28.3-12.7 28.3-28.3v-103.2c0-15.6-12.7-28.3-28.3-28.3h-13.9c-15.6 0-28.3 12.7-28.3 28.3V753.3c-0.1 15.6 12.6 28.3 28.3 28.3z m-49.2-765.5H141.5c-15.6 0-28.3 12.7-28.3 28.3v83.9c0 15.6 12.7 28.3 28.3 28.3h102.6c15.6 0 28.3-12.7 28.3-28.3v-83.9c0.1-15.6-12.6-28.3-28.3-28.3z m0 189.4H141.5c-15.6 0-28.3 12.7-28.3 28.3v83.9c0 15.6 12.7 28.3 28.3 28.3h102.6c15.6 0 28.3-12.7 28.3-28.3v-83.9c0.1-15.6-12.6-28.3-28.3-28.3z m0 189.3H141.5c-15.6 0-28.3 12.7-28.3 28.3V507c0 15.6 12.7 28.3 28.3 28.3h102.6c15.6 0 28.3-12.7 28.3-28.3v-83.9c0.1-15.6-12.6-28.3-28.3-28.3zM461 16.1H344.4c-15.6 0-28.3 12.7-28.3 28.3v83.9c0 15.6 12.7 28.3 28.3 28.3H461c15.6 0 28.3-12.7 28.3-28.3v-83.9c0.1-15.6-12.6-28.3-28.3-28.3z m0 189.4H344.4c-15.6 0-28.3 12.7-28.3 28.3v83.9c0 15.6 12.7 28.3 28.3 28.3H461c15.6 0 28.3-12.7 28.3-28.3v-83.9c0.1-15.6-12.6-28.3-28.3-28.3z m0 189.3H344.4c-15.6 0-28.3 12.7-28.3 28.3V507c0 15.6 12.7 28.3 28.3 28.3H461c15.6 0 28.3-12.7 28.3-28.3v-83.9c0.1-15.6-12.6-28.3-28.3-28.3z m221.5-378.7H565.8c-15.6 0-28.3 12.7-28.3 28.3v83.9c0 15.6 12.7 28.3 28.3 28.3h116.7c15.6 0 28.3-12.7 28.3-28.3v-83.9c0-15.6-12.7-28.3-28.3-28.3z m0 189.4H565.8c-15.6 0-28.3 12.7-28.3 28.3v83.9c0 15.6 12.7 28.3 28.3 28.3h116.7c15.6 0 28.3-12.7 28.3-28.3v-83.9c0-15.6-12.7-28.3-28.3-28.3z m0 189.3H565.8c-15.6 0-28.3 12.7-28.3 28.3V507c0 15.6 12.7 28.3 28.3 28.3h116.7c15.6 0 28.3-12.7 28.3-28.3v-83.9c0-15.6-12.7-28.3-28.3-28.3z m48 226.9h-13.9c-15.6 0-28.3 12.7-28.3 28.3V753.3c0 15.6 12.7 28.3 28.3 28.3h13.9c15.6 0 28.3-12.7 28.3-28.3v-103.2c0.1-15.7-12.6-28.4-28.3-28.4z m159.4-605.6H787.3c-15.6 0-28.3 12.7-28.3 28.3v83.9c0 15.6 12.7 28.3 28.3 28.3h102.6c15.6 0 28.3-12.7 28.3-28.3v-83.9c0-15.6-12.7-28.3-28.3-28.3z m0 189.4H787.3c-15.6 0-28.3 12.7-28.3 28.3v83.9c0 15.6 12.7 28.3 28.3 28.3h102.6c15.6 0 28.3-12.7 28.3-28.3v-83.9c0-15.6-12.7-28.3-28.3-28.3z m0 189.3H787.3c-15.6 0-28.3 12.7-28.3 28.3V507c0 15.6 12.7 28.3 28.3 28.3h102.6c15.6 0 28.3-12.7 28.3-28.3v-83.9c0-15.6-12.7-28.3-28.3-28.3z"  horiz-adv-x="1024" />
      
      <glyph glyph-name="yingxiaoxuanzhong" unicode="&#59392;" d="M225.28 363.52h102.4v-307.2h-102.4zM327.76192 35.84h-108.38016a14.70464 14.70464 0 0 0-10.30144 4.1984A14.21312 14.21312 0 0 0 204.8 50.176V367.77984c0 3.7888 1.536 7.43424 4.28032 10.1376a14.70464 14.70464 0 0 0 10.30144 4.1984h108.38016c3.87072 0 7.5776-1.51552 10.32192-4.1984 2.72384-2.70336 4.25984-6.3488 4.25984-10.1376V50.176a14.21312 14.21312 0 0 0-4.25984-10.1376 14.70464 14.70464 0 0 0-10.32192-4.1984z m-93.7984 28.672h79.21664V353.4848h-79.21664V64.512zM443.43296 424.96H573.44v-374.784h-130.00704V424.96zM577.1264 35.84h-132.21888a14.58176 14.58176 0 0 0-14.82752 14.31552V424.20224c0 7.90528 6.63552 14.31552 14.82752 14.31552h132.21888c3.93216 0 7.70048-1.51552 10.48576-4.1984a14.04928 14.04928 0 0 0 4.34176-10.11712V50.176a14.04928 14.04928 0 0 0-4.34176-10.11712 15.11424 15.11424 0 0 0-10.48576-4.1984z m-117.41184 28.61056h102.56384V409.9072h-102.56384v-345.45664zM680.57088 486.4H819.2v-436.224h-138.62912V486.4zM824.46336 35.84h-137.216a14.9504 14.9504 0 0 0-10.36288 4.15744 13.94688 13.94688 0 0 0-4.3008 10.0352v432.5376c0 3.76832 1.536 7.3728 4.3008 10.0352a14.9504 14.9504 0 0 0 10.38336 4.15744h137.19552a14.9504 14.9504 0 0 0 10.38336-4.15744c2.74432-2.6624 4.3008-6.26688 4.3008-10.0352v-432.5376c0-7.84384-6.57408-14.19264-14.68416-14.19264z m-122.53184 28.3648h107.84768V468.3776h-107.8272v-404.1728z m-74.32192 443.74016a14.9504 14.9504 0 0 0-9.50272 3.3792l-206.17216 169.6768-203.9808-152.04352a15.0528 15.0528 0 0 0-20.60288 2.58048 13.84448 13.84448 0 0 0 2.70336 19.88608l213.38112 159.06816c5.48864 4.096 13.16864 3.8912 18.432-0.4096l205.312-168.96 178.21696 160.19456-99.5328-6.08256a15.01184 15.01184 0 0 0-10.60864 3.52256 13.88544 13.88544 0 0 0-1.31072 20.02944 14.86848 14.86848 0 0 0 10.07616 4.77184l140.53376 8.58112a14.7456 14.7456 0 0 0 14.41792-8.56064 13.84448 13.84448 0 0 0-3.4816-15.9744l-217.86624-195.87072a14.9504 14.9504 0 0 0-10.01472-3.7888z"  horiz-adv-x="1024" />
      
      <glyph glyph-name="rukuguanli1" unicode="&#58948;" d="M852.8-52.1H666.3c-18.3 0-33.2 14.6-33.2 32.6s14.8 32.6 33.2 32.6h184.4V526.5L505.3 758.9 155.4 514.2v-162.8c0-18-14.8-32.6-33.2-32.6-18.3 0-33.2 14.6-33.2 32.6V515.3c0 20.4 10.1 39.6 27 51.4l352 246c21.9 15.3 51.4 15.6 73.6 0.7l347.6-233.7c17.5-11.8 27.9-31.2 27.9-52.1V11c0-34.8-28.9-63.1-64.3-63.1zM490.1 113.7h-348c-17.6 0-32 14.4-32 32s14.4 32 32 32h348c17.6 0 32-14.4 32-32s-14.4-32-32-32zM383.1-43.8c-7.8 0-15.7 2.9-21.8 8.6-12.9 12.1-13.6 32.3-1.5 45.2l128.7 137.7-135.3 132.6c-12.6 12.4-12.8 32.6-0.4 45.3 12.4 12.6 32.6 12.8 45.3 0.4l157.5-154.5c12.4-12.2 12.8-32 1-44.7l-150-160.5c-6.4-6.7-15-10.1-23.5-10.1z"  horiz-adv-x="1024" />
      
      <glyph glyph-name="kehuguanli2" unicode="&#59050;" d="M862.7 768H160c-52.7 0-95.8-41.6-95.8-94.9v-577.8c0-51.6 43.1-94.9 95.8-94.9h702.7c52.7 0 95.8 41.6 95.8 94.9V673.1c0 53.3-43.1 94.9-95.8 94.9zM224.3 607.4c21.5 23.5 52.8 37.3 84.1 37.3 50.8 2 95.8-27.5 117.3-72.6 21.5-45.1 11.7-100-23.5-135.3-35.2-37.3-88-47.1-134.9-29.4C220.4 427 191 472.1 191 521.1c0.1 31.4 11.8 62.8 33.3 86.3zM472 148.6c-21.7 0-39.4 12.4-39.4 27.5 0 74.2-53.2 136-118.1 136-65 0-118.1-63.2-118.1-136 0-15.1-17.7-27.5-39.4-27.5s-39.4 12.4-39.4 27.5c0 107.1 86.6 190.9 196.9 190.9 110.2 0 196.9-83.8 196.9-190.9-0.1-15.2-17.8-27.5-39.4-27.5z m261.3 19.9H575c-17.4 0-31.7 15-31.7 33.3 0 18.3 14.3 33.3 31.7 33.3h158.4c17.4 0 31.7-15 31.7-33.3-0.1-18.3-14.3-33.3-31.8-33.3z m128.9 149.9H578.7c-19.5 0-35.4 15-35.4 33.3 0 18.3 15.9 33.3 35.4 33.3h283.5c19.5 0 35.4-15 35.4-33.3 0-18.3-15.9-33.3-35.4-33.3z m2.6 166.5H579c-19.7 0-35.7 15-35.7 33.3 0 18.3 16.1 33.3 35.7 33.3h285.8c19.7 0 35.7-15 35.7-33.3 0.1-18.3-16-33.3-35.7-33.3z m-34 0"  horiz-adv-x="1024" />
      
      <glyph glyph-name="keshihuagongchang-" unicode="&#58951;" d="M520.63 290.78V619.57H326.49v-319.24M281.2 304.94h461.61v-28.32H281.2zM534.79 290.78h-28.32V605.41H340.66v-305.09h-28.33V633.73h222.46v-342.95zM711.66 290.78h-28.32V543.53H534v28.32h177.66v-281.07zM373.95 536.67h99.22v-28.32h-99.22zM373.95 469.34h99.22v-28.32h-99.22zM373.95 397.54h99.22v-28.32h-99.22zM558.38 469.34h99.22v-28.32h-99.22zM558.38 397.54h99.22v-28.32h-99.22zM952.45 134.68H71.55v641h880.9zM99.88 163h824.24V747.34H99.88zM755.36-7.66H279.27l67.28 86.67h112.46v69.83h28.32v-98.16H360.42l-23.31-30.02h349.86l-30.49 30.49H544.22v97.69h28.32v-69.37h95.67l87.15-87.13z"  horiz-adv-x="1024" />
      
      <glyph glyph-name="zhiwuguanli" unicode="&#58998;" d="M374 498c18.2-18.2 39.3-32.4 62.9-42.4 24.5-10.3 50.4-15.6 77.1-15.6s52.6 5.2 77.1 15.6c23.6 10 44.8 24.2 62.9 42.4 18.2 18.2 32.4 39.3 42.4 62.9 10.3 24.5 15.6 50.4 15.6 77.1s-5.2 52.6-15.6 77.1c-10 23.6-24.2 44.8-42.4 62.9-18.2 18.2-39.3 32.4-62.9 42.4C566.6 830.8 540.7 836 514 836s-52.6-5.2-77.1-15.6c-23.6-10-44.8-24.2-62.9-42.4-18.2-18.2-32.4-39.3-42.4-62.9-10.4-24.5-15.6-50.4-15.6-77.1s5.2-52.6 15.6-77.1c10-23.6 24.2-44.7 42.4-62.9z m140 266c69.6 0 126-56.4 126-126s-56.4-126-126-126-126 56.4-126 126 56.4 126 126 126zM326.3 428.9c-2 6.6-7.9 11.1-14.5 11.1H220c-33.6 0-61-28.8-61-64v-369c0-35.2 27.5-64 61-64h234.6c10.4 0 17.7 10.6 14.5 20.9l-142.8 465zM231 15V368h38.7l108.4-353H231zM800 440H687.4c-6.6 0-12.5-4.5-14.5-11.1l-141.4-465c-3.1-10.3 4.2-20.9 14.5-20.9h254c33.6 0 61 28.8 61 64V376c0 35.2-27.5 64-61 64z m-11-425H622.2l107.4 353H789v-353zM601 341.5l-83.8 73c-3 2.6-7.4 2.6-10.4 0.1l-85.7-73.1c-2.5-2.1-3.4-5.5-2.4-8.5l84.8-264.2c2.4-7.4 12.9-7.4 15.2 0L603.4 333c1 3 0 6.4-2.4 8.5z"  horiz-adv-x="1024" />
      
      <glyph glyph-name="yingxiaowangzhan" unicode="&#58950;" d="M491.26912 146.15552a20.72576 20.72576 0 1 1 41.45152 0 20.72576 20.72576 0 0 1-41.45152 0zM932.1984 838.4H91.79648c-38.6816 0-70.03648-31.35488-70.03648-70.03648v-631.6288c0-38.67648 31.35488-70.03648 70.03648-70.03648h307.13344c-21.29408-63.72352-60.32896-122.56256-132.04992-122.56256a17.5104 17.5104 0 1 1-0.02048-35.02592h490.26048a17.50528 17.50528 0 0 1 17.52064 17.50528 17.50016 17.50016 0 0 1-17.50016 17.52064h-0.02048c-71.72096 0-110.75584 58.8288-132.04992 122.56256h307.12832c38.6816 0 70.0416 31.36 70.0416 70.03648V768.36352c0 38.6816-31.36 70.03648-70.0416 70.03648zM56.33536 768.36352a35.49184 35.49184 0 0 0 35.45088 35.45088h840.40704a35.49184 35.49184 0 0 0 35.45088-35.45088v-538.07104H56.33536V768.36352z m576.40448-797.312l20.59776-22.23104H375.77216l15.488 17.11104c22.65088 32.82944 34.33472 55.53152 48.15872 93.6448l2.2784 7.12704h140.59008l2.27328-7.12192c13.42976-41.83552 26.10688-64.1536 48.1792-88.52992z m334.91968 165.67296a35.4816 35.4816 0 0 0-35.44576-35.44576H91.79648a35.4816 35.4816 0 0 0-35.45088 35.44576v59.40736h911.31392v-59.40736zM848.54272 294.30272c0-3.48672-5.38624-6.33344-12.01664-6.33344H218.68032c-6.6304 0-12.01664 2.85184-12.01664 6.33344v16.8704c0 3.51744 5.38624 6.33344 12.01664 6.33344h617.84576c6.6304 0 12.01664-2.82112 12.01664-6.33344v-16.8704zM291.91168 335.3088c0-2.816-1.87392-5.10464-4.18816-5.10464h-31.29344c-2.31424 0-4.18816 2.28864-4.18816 5.10464V423.5264c0 2.82112 1.87392 5.10464 4.18816 5.10464h31.29344c2.31424 0 4.18816-2.28352 4.18816-5.10464v-88.2176z m163.00544 2.54976c0-4.20352-1.87392-7.61856-4.18816-7.61856h-31.29344c-2.31936 0-4.18816 3.41504-4.18816 7.61856V470.20544c0 4.20352 1.87392 7.61856 4.18816 7.61856h31.29344c2.31424 0 4.18816-3.41504 4.18816-7.61856v-132.34688z m172.53376-0.55296c0-5.64736-1.86368-7.0656-4.17792-7.0656h-31.25248c-2.31424 0-4.1728 1.41824-4.1728 7.0656V519.9616c0 5.64224 1.85856 7.0656 4.1728 7.0656h31.29344c2.30912 0 4.17792-1.42336 4.17792-7.0656v-182.66112l-0.04096 0.00512z m177.024 1.32096c0-8.4224-1.86368-8.38656-4.1728-8.38656h-31.29856c-2.30912 0-4.17792-0.03584-4.17792 8.38656V617.06752c0 8.41728 1.8688 8.38656 4.17792 8.38656h31.29856c2.30912 0 4.1728 0.03584 4.1728-8.38656v-278.44096zM218.65472 479.1296c-1.84832-0.04096-3.61472-0.1024-5.26848-0.17408 0 0 1.86368 0.04096 5.26848 0.17408zM791.0912 670.69952c-6.59456 4.11648-12.42112 8.91904-18.55488 13.35808-7.57248 5.49888-15.2832 10.94656-22.80448 16.47616-0.45056 0.3328-0.88576 0.6656-1.37728 0.99328-5.03808 3.71712-10.01984 7.42912-15.05792 11.14112-4.21888 3.2512-7.34208 6.36928-11.47904 6.5024-2.08896 0.06656-4.44928-0.6656-7.38304-2.55488-5.34528-3.45088-10.63936-6.93248-15.98464-10.40896-12.76928-8.35584-25.4976-16.7424-38.31808-25.0624-3.3024-2.16064-6.64064-4.28032-9.92768-6.4-2.79552-1.792-6.08768-3.28192-8.50432-5.40672-1.86368-1.61792 0.61952-2.5856 2.64192-2.65216 10.76224-0.39936 21.53472 0.06656 32.26624 0.39936 7.79264 0.26624 15.58528 0.3328 23.3728 0.35328C569.20576 498.944 262.3488 480.86016 218.65472 479.1296c53.56032 1.2288 187.50464-10.17856 335.39072 53.45792a891.91424 891.91424 0 0 1 38.50752 17.73568c34.13504 16.87552 66.64192 36.14208 93.96736 58.9824 18.0736 15.11424 40.63232 38.9376 51.44064 57.99936 1.03424 0 2.06336-0.01536 3.0976-0.01536h28.44672c7.1168 0 14.27968 0.1024 21.4016 0.16384 3.4304 0.03072 1.87392 2.19136 0.18432 3.24608z"  horiz-adv-x="1024" />
      
      <glyph glyph-name="yezhuguanli" unicode="&#58939;" d="M526.587953 256.180994c-62.228751-1.087244-128.550657-29.355598-198.901763-84.80506-114.672303-90.433149-104.247548-241.751982-104.247548-241.751983 0.5756-63.82764-100.026482-73.16515-95.293771 9.657289 0 0-7.930488 174.406787 132.068213 299.375933a566.198492 566.198492 0 0 0 101.689326 73.484928 319.777754 319.777754 0 1 0 164.749499-55.961107z m19.378532 103.416126a213.163851 213.163851 0 1 1 0 426.391658 213.163851 213.163851 0 0 1 0-426.391658zM754.141803-126.720889v174.854476a31.977775 31.977775 0 0 1-31.977775 31.977776H618.236258a31.977775 31.977775 0 0 1-31.977776-31.977776v-174.918432h-47.838752a31.977775 31.977775 0 0 0-31.977775 31.977776v144.411634H447.794714l198.581986 196.855185a31.977775 31.977775 0 0 0 44.768886 0.319778L895.483571 49.604565h-59.79844v-144.411634a31.977775 31.977775 0 0 0-31.977776-31.977776H754.141803zM639.661367 32.016788h63.955551v-158.865588H639.661367v158.865588z"  horiz-adv-x="1024" />
      
      <glyph glyph-name="bumenguanli1" unicode="&#58971;" d="M87.616 384h-0.512V448H480V640H320V896h384v-256H544v-192H960v-320h64v-256h-256v256h128V384H544v-256H640v-256H384v256h96V384H151.616v-256H256v-256H0v256h87.616V384z"  horiz-adv-x="1024" />
      
      <glyph glyph-name="houtai" unicode="&#58916;" d="M1112.702976 123.611429V814.08A105.325714 105.325714 0 0 1 1013.22869 896h-936.228571a111.177143 111.177143 0 0 1-58.514286-46.811429A128.731429 128.731429 0 0 1 0.931547 767.268571v-643.657142a111.177143 111.177143 0 0 1 46.811429-87.771429 175.542857 175.542857 0 0 1 76.068571-11.702857h392.045715v-76.068572H211.582976a35.108571 35.108571 0 0 1-35.108571-35.108571 40.96 40.96 0 0 1 35.108571-40.96h690.468571a40.96 40.96 0 0 1 35.108572 40.96 35.108571 35.108571 0 0 1-35.108572 35.108571h-304.274285v76.068572h444.708571a99.474286 99.474286 0 0 1 70.217143 99.474286zM100.405833 819.931429z m-11.702857-5.851429z m0 0z m-5.851429-702.171429z m5.851429-5.851428z m942.08 11.702857v-11.702857H77.000119V796.525714h5.851428a5.851429 5.851429 0 0 1 5.851429 5.851429h947.931429v-678.765714h-5.851429zM416.382976 498.102857a40.96 40.96 0 0 1-40.96-40.96 40.96 40.96 0 0 1 81.92 0 40.96 40.96 0 0 1-40.96 40.96zM556.817262 498.102857a40.96 40.96 0 0 1-40.96-40.96 40.96 40.96 0 0 1 81.92 0 40.96 40.96 0 0 1-40.96 40.96zM697.251547 498.102857a40.96 40.96 0 0 1-40.96-40.96 40.96 40.96 0 0 1 81.92 0 40.96 40.96 0 0 1-40.96 40.96z"  horiz-adv-x="1112" />
      
      <glyph glyph-name="yingxiaofangan" unicode="&#59010;" d="M492 832H84c-11 0-20-9-20-20v-856c0-11 9-20 20-20h408c11 0 20 9 20 20V812c0 11-9 20-20 20zM256 10c0-5.5-4.5-10-10-10H138c-5.5 0-10 4.5-10 10V502c0 5.5 4.5 10 10 10h108c5.5 0 10-4.5 10-10v-492z m0 576c0-5.5-4.5-10-10-10H138c-5.5 0-10 4.5-10 10v44c0 5.5 4.5 10 10 10h108c5.5 0 10-4.5 10-10v-44z m0 128c0-5.5-4.5-10-10-10H138c-5.5 0-10 4.5-10 10v44c0 5.5 4.5 10 10 10h108c5.5 0 10-4.5 10-10v-44z m192-704c0-5.5-4.5-10-10-10H330c-5.5 0-10 4.5-10 10V502c0 5.5 4.5 10 10 10h108c5.5 0 10-4.5 10-10v-492z m0 576c0-5.5-4.5-10-10-10H330c-5.5 0-10 4.5-10 10v44c0 5.5 4.5 10 10 10h108c5.5 0 10-4.5 10-10v-44z m0 128c0-5.5-4.5-10-10-10H330c-5.5 0-10 4.5-10 10v44c0 5.5 4.5 10 10 10h108c5.5 0 10-4.5 10-10v-44zM192 41c-34.74 0-63 28.26-63 63s28.26 63 63 63 63-28.26 63-63-28.26-63-63-63z m0 78c-8.27 0-15-6.73-15-15s6.73-15 15-15 15 6.73 15 15-6.73 15-15 15zM384 41c-34.74 0-63 28.26-63 63s28.26 63 63 63 63-28.26 63-63-28.26-63-63-63z m0 78c-8.27 0-15-6.73-15-15s6.73-15 15-15 15 6.73 15 15-6.73 15-15 15zM727.48 828.44L518.43 774.1c-10.65-2.77-17.09-13.74-14.32-24.39l207.56-798.46c2.77-10.65 13.74-17.09 24.39-14.32l209.05 54.34c10.65 2.77 17.09 13.74 14.32 24.39L751.86 814.11c-2.76 10.65-13.74 17.09-24.38 14.33zM883.9 51.81c1.38-5.32-1.84-10.81-7.16-12.19l-104.53-27.17c-5.32-1.38-10.81 1.84-12.19 7.16l-115.73 445.2c-1.38 5.32 1.84 10.81 7.16 12.19l104.53 27.17c5.32 1.38 10.81-1.84 12.19-7.16l115.73-445.2z m-136.87 526.5c1.38-5.32-1.84-10.81-7.16-12.19l-104.53-27.17c-5.32-1.38-10.81 1.84-12.19 7.16l-11.07 42.58c-1.38 5.32 1.84 10.81 7.16 12.19l104.53 27.17c5.32 1.38 10.81-1.84 12.19-7.16l11.07-42.58z m-32.2 123.88c1.38-5.32-1.84-10.81-7.16-12.19l-104.53-27.17c-5.32-1.38-10.81 1.84-12.19 7.16l-11.07 42.58c-1.38 5.32 1.84 10.81 7.16 12.19l104.53 27.17c5.32 1.38 10.81-1.84 12.19-7.16l11.07-42.58zM798.32 63.68c-28 0-53.62 18.83-60.98 47.16-8.74 33.62 11.5 68.08 45.12 76.82 33.62 8.74 68.08-11.5 76.82-45.12 4.23-16.29 1.87-33.25-6.65-47.76-8.52-14.51-22.19-24.83-38.47-29.07a62.7 62.7 0 0 0-15.84-2.03z m-0.02 78.01c-1.25 0-2.51-0.16-3.77-0.48-8-2.08-12.82-10.29-10.74-18.29 2.08-8.01 10.29-12.82 18.29-10.74 3.88 1.01 7.13 3.47 9.16 6.92 2.03 3.45 2.59 7.49 1.58 11.37-1.75 6.73-7.85 11.22-14.52 11.22z"  horiz-adv-x="1024" />
      
      <glyph glyph-name="shangpinxiaoshoubaobiao" unicode="&#59017;" d="M512-50c-17.67 0-32 14.33-32 32V288c0 17.67 14.33 32 32 32s32-14.33 32-32v-306c0-17.67-14.33-32-32-32zM672-50c-17.67 0-32 14.33-32 32V96c0 17.67 14.33 32 32 32s32-14.33 32-32v-114c0-17.67-14.33-32-32-32zM352-50c-17.67 0-32 14.33-32 32V160c0 17.67 14.33 32 32 32s32-14.33 32-32v-178c0-17.67-14.33-32-32-32zM878-64H146c-45.21 0-82 36.79-82 82V430c0 45.21 36.79 82 82 82h78c17.67 0 32-14.33 32-32s-14.33-32-32-32h-78c-9.76 0-18-8.24-18-18v-412c0-9.76 8.24-18 18-18h732c9.76 0 18 8.24 18 18V430c0 9.76-8.24 18-18 18h-78c-17.67 0-32 14.33-32 32s14.33 32 32 32h78c45.21 0 82-36.79 82-82v-412c0-45.21-36.79-82-82-82zM608 448H416c-17.67 0-32 14.33-32 32s14.33 32 32 32h192c17.67 0 32-14.33 32-32s-14.33-32-32-32zM704 384c-17.67 0-32 14.33-32 32V608c0 88.22-71.78 160-160 160s-160-71.78-160-160v-192c0-17.67-14.33-32-32-32s-32 14.33-32 32V608c0 59.62 23.36 115.81 65.77 158.23S452.38 832 512 832s115.81-23.36 158.23-65.77S736 667.62 736 608v-192c0-17.67-14.33-32-32-32z"  horiz-adv-x="1024" />
      
      <glyph glyph-name="youhuiyingxiao" unicode="&#59020;" d="M311.18 95.03c-4.69 0-9.37 1.03-13.69 3.07a32.026 32.026 0 0 0-16.45 18.15l-23.02 64.36c-12.13-0.91-24.66-0.06-37.47 2.57-21.07 4.31-41.98 13.2-62.15 26.43-38.19 25.04-69.37 63.43-83.42 102.7-14.05 39.27-14.29 88.73-0.64 132.31 7.21 23.02 17.74 43.15 31.29 59.85 8.25 10.16 17.39 18.76 27.34 25.75l-23.19 64.83c-5.95 16.64 2.71 34.96 19.35 40.91l542.35 194c16.64 5.95 34.96-2.71 40.91-19.35l23.19-64.83c12.13 0.91 24.66 0.06 37.47-2.57 21.07-4.31 41.98-13.2 62.15-26.43 38.19-25.04 69.37-63.43 83.42-102.7 14.05-39.27 14.29-88.73 0.64-132.31-7.21-23.02-17.74-43.15-31.29-59.85-8.25-10.16-17.39-18.76-27.34-25.75l23.02-64.36a31.984 31.984 0 0 0-1.2-24.46 32.026 32.026 0 0 0-18.15-16.45l-542.35-194a31.873 31.873 0 0 0-10.77-1.87z m-32.33 154.39c4.69 0 9.37-1.03 13.69-3.07a32.026 32.026 0 0 0 16.45-18.15l21.55-60.26 482.09 172.44-21.56 60.26c-5.95 16.64 2.71 34.96 19.35 40.91 20.9 7.48 38.32 29.1 47.78 59.34 9.49 30.3 9.55 65.41 0.17 91.63s-31.7 53.33-58.25 70.73c-26.5 17.37-53.68 23.05-74.58 15.57-16.64-5.95-34.96 2.71-40.91 19.35l-21.72 60.73-482.08-172.43 21.72-60.73c5.95-16.64-2.71-34.96-19.35-40.91-20.9-7.48-38.32-29.1-47.78-59.34-9.49-30.3-9.55-65.41-0.17-91.63s31.7-53.33 58.25-70.73c26.5-17.37 53.68-23.05 74.58-15.57a32.11 32.11 0 0 0 10.77 1.86zM799.73-63.83h-576c-17.67 0-32 14.33-32 32v68.42c-25.99 7.2-50.82 23.05-72.06 46.34-25.46 27.93-44.46 65.41-52.12 102.83-3.54 17.31 7.62 34.22 24.93 37.77 17.32 3.54 34.22-7.62 37.77-24.93 10.13-49.46 50.1-102.42 93.48-102.42 17.67 0 32-14.33 32-32v-64h512v64c0 17.67 14.33 32 32 32 22.2 0 45.88 14.5 64.98 39.78 19.14 25.33 31.02 58.37 31.02 86.22 0 12.47-2.4 26.35-6.95 40.12-5.54 16.78 3.58 34.88 20.36 40.42 16.78 5.54 34.88-3.58 40.42-20.36 6.75-20.45 10.17-40.7 10.17-60.18 0-41.71-16.43-88.36-43.96-124.8-14.54-19.25-31.23-34.66-49.62-45.82-11.19-6.79-22.69-11.81-34.42-15.04v-68.35c0-17.67-14.33-32-32-32zM382.69 366.38L274.1 327.25 259 369.14l108.59 39.13 15.1-41.89zM383.03 506.01c-8.39 23.27-8.65 44.25-0.78 62.94 7.87 18.68 22.83 32 44.88 39.94 21.07 7.59 39.75 7.13 56.04-1.4s28.47-24 36.55-46.41c8.3-23.03 8.45-43.81 0.45-62.33-8-18.52-22.83-31.69-44.52-39.5-20.33-7.33-38.94-6.7-55.8 1.9-16.86 8.59-29.14 23.55-36.82 44.86z m39.7 16.59c9.49-26.34 23.91-36.02 43.27-29.04 19.72 7.11 24.64 24.38 14.75 51.82-9.58 26.58-23.8 36.47-42.67 29.68-20.21-7.29-25.33-24.77-15.35-52.46z m206.81 154.88L547.14 326l-46.12-16.62 82.03 351.35 46.49 16.75z m-18.07-252.32c-8.48 23.52-8.67 44.59-0.57 63.22 8.1 18.62 23.05 31.87 44.85 39.73 21.07 7.59 39.7 7.25 55.91-1.03 16.2-8.28 28.39-23.75 36.55-46.41 8.39-23.28 8.53-44.23 0.44-62.85-8.1-18.63-22.92-31.82-44.48-39.59-20.21-7.28-38.79-6.61-55.74 2.02-16.96 8.62-29.28 23.59-36.96 44.91z m39.51 16.52c9.54-26.46 24.04-36.18 43.52-29.16 19.6 7.06 24.46 24.31 14.57 51.75-4.63 12.86-10.8 21.81-18.5 26.86-7.7 5.04-15.9 6-24.6 2.87-19.97-7.2-24.96-24.64-14.99-52.32z"  horiz-adv-x="1024" />
      
      <glyph glyph-name="xiangmuxiaoshoubaobiao" unicode="&#59021;" d="M767-64H127c-17.67 0-32 14.33-32 32V672c0 17.67 14.33 32 32 32h640c17.67 0 32-14.33 32-32v-704c0-17.67-14.33-32-32-32z m-608 64h576V640H159v-640zM320 29h-64v96c0 17.67 14.33 32 32 32s32-14.33 32-32v-96zM426.67 29h-64V189c0 17.67 14.33 32 32 32s32-14.33 32-32v-160zM533.33 29h-64V151c0 17.67 14.33 32 32 32s32-14.33 32-32v-122zM640 29h-64V253c0 17.67 14.33 32 32 32s32-14.33 32-32v-224zM896 32h-97c-17.67 0-32 14.33-32 32s14.33 32 32 32h65V768H287v-63c0-17.67-14.33-32-32-32s-32 14.33-32 32V800c0 17.67 14.33 32 32 32h641c17.67 0 32-14.33 32-32v-736c0-17.67-14.33-32-32-32zM271 189c-3.82 0-7.63 1.45-10.56 4.35-5.88 5.83-5.93 15.33-0.09 21.21l113 114c5.47 5.52 14.25 5.95 20.23 0.99l104.2-86.39 97.76 146.18c4.61 6.89 13.92 8.74 20.81 4.13 6.89-4.6 8.74-13.92 4.13-20.81l-107-160a14.994 14.994 0 0 0-10.31-6.5c-4.2-0.61-8.47 0.59-11.73 3.3L385 297.7 281.65 193.44A14.937 14.937 0 0 0 271 189zM640.21 429.16c-6.75-28.28-11.2-66-7.66-93.59l-28.77 39.11-47.12 11.65c26.84 7.26 59.99 25.79 83.55 42.83zM767 448H127c-17.67 0-32 14.33-32 32s14.33 32 32 32h640c17.67 0 32-14.33 32-32s-14.33-32-32-32zM534 544H234c-5.5 0-10 4.5-10 10v44c0 5.5 4.5 10 10 10h300c5.5 0 10-4.5 10-10v-44c0-5.5-4.5-10-10-10zM640 576m-32 0a32 32 0 1 1 64 0 32 32 0 1 1-64 0Z"  horiz-adv-x="1024" />
      
      <glyph glyph-name="xiaoshoudingdan_icox" unicode="&#59082;" d="M288 792h448A152 152 0 0 0 888 640v-512A152 152 0 0 0 736-24H288A152 152 0 0 0 136 128V640A152 152 0 0 0 288 792z m0-48A104 104 0 0 1 184 640v-512A104 104 0 0 1 288 24h448A104 104 0 0 1 840 128V640A104 104 0 0 1 736 744H288zM680 768v-64c0-22.08-17.92-40-40-40h-256c-22.08 0-40 17.92-40 40V768h-48v-64A88 88 0 0 1 384 616h256A88 88 0 0 1 728 704V768h-48zM368.96 368.96a24 24 0 0 1-33.92-33.92l128-128a24 24 0 0 1 33.92 0l224 224a24 24 0 0 1-33.92 33.92L480 257.92l-111.04 111.04z"  horiz-adv-x="1024" />
      
      </font>
</defs>
</svg>
